<svg width="182" height="72" viewBox="0 0 182 72" fill="none" xmlns="http://www.w3.org/2000/svg">
<rect width="182" height="72" rx="8" fill="#14142D"/>
<path opacity="0.7" d="M64.36 42.63H62V41.75H67.74V42.63H65.38V49H64.36V42.63ZM71.2713 49.13C70.2313 49.13 69.4113 48.78 68.7913 48.08C68.1713 47.38 67.8713 46.48 67.8713 45.37C67.8713 44.27 68.1713 43.37 68.7913 42.67C69.4113 41.97 70.2313 41.62 71.2713 41.62C72.3013 41.62 73.1213 41.97 73.7413 42.67C74.3613 43.37 74.6713 44.27 74.6713 45.37C74.6713 46.48 74.3613 47.38 73.7413 48.08C73.1213 48.78 72.3013 49.13 71.2713 49.13ZM71.2713 48.27C71.9513 48.27 72.5213 48.02 72.9613 47.5C73.4013 46.99 73.6313 46.28 73.6313 45.37C73.6313 44.47 73.4013 43.76 72.9613 43.25C72.5213 42.74 71.9513 42.48 71.2713 42.48C70.5813 42.48 70.0113 42.74 69.5713 43.25C69.1313 43.76 68.9113 44.47 68.9113 45.37C68.9113 46.28 69.1313 46.99 69.5713 47.5C70.0113 48.02 70.5813 48.27 71.2713 48.27ZM78.3136 41.75C79.2936 41.75 80.0336 41.91 80.5536 42.22C81.0636 42.54 81.3236 43.11 81.3236 43.94C81.3236 44.38 81.2436 44.75 81.1036 45.04C80.9636 45.34 80.7536 45.56 80.4736 45.72C80.1936 45.88 79.8736 45.98 79.5336 46.04C79.1936 46.1 78.7836 46.13 78.3136 46.13H77.0636V49H76.0436V41.75H78.3136ZM77.0636 42.61V45.24H78.3936C78.6336 45.24 78.8336 45.24 78.9936 45.22C79.1536 45.21 79.3236 45.18 79.5036 45.13C79.6836 45.08 79.8236 45.01 79.9236 44.92C80.0236 44.83 80.1136 44.7 80.1836 44.54C80.2436 44.38 80.2836 44.18 80.2836 43.94C80.2836 43.72 80.2436 43.52 80.1836 43.35C80.1136 43.19 80.0236 43.06 79.9236 42.96C79.8236 42.87 79.6836 42.8 79.5136 42.74C79.3336 42.69 79.1636 42.66 79.0036 42.64C78.8336 42.62 78.6336 42.61 78.3936 42.61H77.0636ZM90.5641 47.84L91.9041 41.75H92.9741L91.1641 49H89.9241L88.5241 43.04L87.1541 49H85.9141L84.0741 41.75H85.1941L86.5941 47.84L87.9341 41.75H89.1341L90.5641 47.84ZM93.9928 41.75H98.9128V42.63H95.0128V44.83H98.6828V45.71H95.0128V48.12H98.9128V49H93.9928V41.75ZM100.126 41.75H102.736C104.436 41.75 105.286 42.35 105.286 43.54C105.286 43.89 105.206 44.21 105.066 44.49C104.926 44.78 104.726 45 104.486 45.14C105.216 45.45 105.586 46.02 105.586 46.86C105.586 47.59 105.346 48.13 104.866 48.48C104.386 48.83 103.766 49 102.986 49H100.126V41.75ZM101.146 44.85H102.896C103.796 44.85 104.256 44.46 104.256 43.68C104.256 43.32 104.126 43.06 103.886 42.88C103.646 42.7 103.316 42.61 102.896 42.61H101.146V44.85ZM101.146 48.14H102.996C104.016 48.14 104.536 47.72 104.536 46.87C104.536 46.45 104.406 46.15 104.146 45.95C103.886 45.76 103.476 45.66 102.936 45.66H101.146V48.14ZM111.197 41.75C112.437 41.75 113.407 42.03 114.107 42.59C114.797 43.15 115.147 44.07 115.147 45.37C115.147 46.05 115.047 46.62 114.857 47.1C114.667 47.58 114.387 47.96 114.027 48.23C113.667 48.51 113.247 48.7 112.787 48.82C112.327 48.94 111.797 49 111.197 49H109.217V41.75H111.197ZM111.167 42.61H110.237V48.14H111.167C111.507 48.14 111.797 48.13 112.057 48.09C112.307 48.06 112.567 47.99 112.847 47.88C113.117 47.77 113.337 47.62 113.507 47.42C113.677 47.22 113.817 46.95 113.937 46.61C114.047 46.27 114.107 45.85 114.107 45.37C114.107 44.9 114.047 44.49 113.937 44.14C113.817 43.8 113.677 43.53 113.507 43.33C113.327 43.14 113.107 42.99 112.837 42.88C112.567 42.77 112.307 42.7 112.057 42.66C111.797 42.63 111.507 42.61 111.167 42.61ZM116.522 41.75H121.442V42.63H117.542V44.83H121.212V45.71H117.542V48.12H121.442V49H116.522V41.75ZM123.025 41.75L125.035 47.95L127.005 41.75H128.075L125.615 49H124.395L121.905 41.75H123.025ZM129.032 41.75H133.952V42.63H130.052V44.83H133.722V45.71H130.052V48.12H133.952V49H129.032V41.75ZM136.185 48.12H140.015V49H135.165V41.75H136.185V48.12ZM143.43 49.13C142.39 49.13 141.57 48.78 140.95 48.08C140.33 47.38 140.03 46.48 140.03 45.37C140.03 44.27 140.33 43.37 140.95 42.67C141.57 41.97 142.39 41.62 143.43 41.62C144.46 41.62 145.28 41.97 145.9 42.67C146.52 43.37 146.83 44.27 146.83 45.37C146.83 46.48 146.52 47.38 145.9 48.08C145.28 48.78 144.46 49.13 143.43 49.13ZM143.43 48.27C144.11 48.27 144.68 48.02 145.12 47.5C145.56 46.99 145.79 46.28 145.79 45.37C145.79 44.47 145.56 43.76 145.12 43.25C144.68 42.74 144.11 42.48 143.43 42.48C142.74 42.48 142.17 42.74 141.73 43.25C141.29 43.76 141.07 44.47 141.07 45.37C141.07 46.28 141.29 46.99 141.73 47.5C142.17 48.02 142.74 48.27 143.43 48.27ZM150.472 41.75C151.452 41.75 152.192 41.91 152.712 42.22C153.222 42.54 153.482 43.11 153.482 43.94C153.482 44.38 153.402 44.75 153.262 45.04C153.122 45.34 152.912 45.56 152.632 45.72C152.352 45.88 152.032 45.98 151.692 46.04C151.352 46.1 150.942 46.13 150.472 46.13H149.222V49H148.202V41.75H150.472ZM149.222 42.61V45.24H150.552C150.792 45.24 150.992 45.24 151.152 45.22C151.312 45.21 151.482 45.18 151.662 45.13C151.842 45.08 151.982 45.01 152.082 44.92C152.182 44.83 152.272 44.7 152.342 44.54C152.402 44.38 152.442 44.18 152.442 43.94C152.442 43.72 152.402 43.52 152.342 43.35C152.272 43.19 152.182 43.06 152.082 42.96C151.982 42.87 151.842 42.8 151.672 42.74C151.492 42.69 151.322 42.66 151.162 42.64C150.992 42.62 150.792 42.61 150.552 42.61H149.222ZM154.559 41.75H159.479V42.63H155.579V44.83H159.249V45.71H155.579V48.12H159.479V49H154.559V41.75ZM163.542 45.94C163.422 45.95 163.232 45.95 162.992 45.95H161.712V49H160.692V41.75H162.992C163.472 41.75 163.882 41.78 164.222 41.84C164.562 41.9 164.872 42 165.152 42.14C165.432 42.29 165.652 42.51 165.792 42.79C165.932 43.07 166.012 43.42 166.012 43.84C166.012 44.88 165.532 45.52 164.572 45.78L166.252 49H165.112L163.542 45.94ZM161.712 42.61V45.09H163.072C163.312 45.09 163.512 45.09 163.672 45.07C163.832 45.06 164.002 45.03 164.182 44.98C164.362 44.94 164.502 44.87 164.602 44.78C164.702 44.7 164.792 44.58 164.862 44.42C164.922 44.27 164.962 44.08 164.962 43.86C164.962 43.64 164.922 43.46 164.862 43.3C164.792 43.15 164.702 43.03 164.602 42.94C164.502 42.85 164.362 42.78 164.192 42.73C164.012 42.68 163.842 42.65 163.682 42.63C163.512 42.62 163.312 42.61 163.072 42.61H161.712Z" fill="white"/>
<path d="M73.714 30.2171C73.3972 30.4258 73.1627 30.579 72.9972 30.6767C72.4046 31.0386 71.8399 31.3176 71.3163 31.5404C70.5582 31.8468 69.8825 32 69.2765 32C67.1956 32 65.4727 31.3731 64.0801 30.1053C62.6876 28.8375 62 27.25 62 25.3279C62 23.4754 62.6202 21.873 63.8742 20.5075C65.1281 19.1428 66.6443 18.4737 68.4361 18.4737C69.1807 18.4737 69.9791 18.5987 70.8061 18.8645C71.881 19.1983 72.7492 19.7001 73.4384 20.3543L72.2391 21.6636C71.7297 21.1766 71.0683 20.8139 70.296 20.5911C69.7177 20.4239 69.084 20.341 68.3806 20.341C67.1267 20.341 66.0652 20.8413 65.2248 21.8308C64.3843 22.8337 63.9574 24.0179 63.9574 25.4108C63.9574 26.7904 64.439 27.9183 65.4038 28.8242C66.3686 29.7293 67.5948 30.1889 69.0832 30.1889C69.7035 30.1889 70.338 29.9935 70.9851 29.6183C71.523 29.2142 71.7987 29.0188 71.8121 29.0047V26.1494H67.7881L68.3664 24.3665H73.714V30.2171ZM85.8693 26.7341C85.8693 28.1129 85.3734 29.3111 84.3809 30.314C83.3883 31.3168 82.1621 31.8327 80.7014 31.8327C79.3508 31.8327 78.1658 31.3309 77.1455 30.3421C76.1253 29.3534 75.6294 28.1551 75.6294 26.7481C75.6294 25.3553 76.1126 24.157 77.0766 23.126C78.0406 22.095 79.2265 21.594 80.6182 21.594C82.1621 21.594 83.4161 22.0817 84.3943 23.0705C85.3734 24.0319 85.8693 25.2576 85.8693 26.7341ZM83.9808 26.7622C83.9808 25.8289 83.664 25.0348 83.0303 24.3938C82.3966 23.7388 81.6108 23.4183 80.6737 23.4183C79.7921 23.4183 79.0474 23.7529 78.4272 24.422C77.807 25.0903 77.5036 25.8563 77.5036 26.72C77.5036 27.6259 77.8204 28.3919 78.4407 29.0329C79.0609 29.6738 79.8332 30.0076 80.7695 30.0076C81.6385 30.0076 82.3823 29.6871 83.0168 29.0462C83.664 28.4052 83.9808 27.6392 83.9808 26.7622ZM97.859 26.7341C97.859 28.1129 97.3631 29.3111 96.3706 30.314C95.378 31.3168 94.1518 31.8327 92.6911 31.8327C91.3405 31.8327 90.1555 31.3309 89.1352 30.3421C88.1158 29.3534 87.6191 28.1551 87.6191 26.7481C87.6191 25.3553 88.1023 24.157 89.0663 23.126C90.0311 22.095 91.2162 21.594 92.6079 21.594C94.1518 21.594 95.4057 22.0817 96.384 23.0705C97.3631 24.0319 97.859 25.2576 97.859 26.7341ZM95.9705 26.7622C95.9705 25.8289 95.6537 25.0348 95.02 24.3938C94.3863 23.7388 93.6005 23.4183 92.6634 23.4183C91.7817 23.4183 91.0371 23.7529 90.4169 24.422C89.7967 25.0903 89.4933 25.8563 89.4933 26.72C89.4933 27.6259 89.8101 28.3919 90.4312 29.0329C91.0506 29.6738 91.8229 30.0076 92.76 30.0076C93.6282 30.0076 94.372 29.6871 95.0065 29.0462C95.6537 28.4052 95.9705 27.6392 95.9705 26.7622ZM108.954 31.5537L107.217 31.8187V30.1608L106.845 30.5782C106.517 30.8813 106.145 31.135 105.742 31.3309C105.151 31.6002 104.506 31.7382 103.855 31.735C102.504 31.735 101.346 31.2473 100.409 30.2577C99.4717 29.2682 99.0036 28.0988 99.0036 26.7341C99.0036 25.3271 99.4718 24.1156 100.395 23.1119C101.319 22.1083 102.449 21.6073 103.799 21.6073C104.571 21.6073 105.246 21.7323 105.811 21.9833C106.211 22.1646 106.556 22.4014 106.845 22.6945C106.942 22.8196 107.038 22.9587 107.135 23.0838V18.7379L108.98 18.4729L108.954 31.5537ZM107.327 26.8591C107.327 25.8844 106.996 25.0621 106.321 24.3938C105.646 23.7107 104.888 23.3769 104.02 23.3769C103.055 23.3769 102.284 23.6974 101.691 24.3383C101.139 24.9504 100.85 25.7031 100.85 26.5809C100.85 27.5697 101.139 28.3912 101.718 29.0321C102.296 29.673 103.028 29.9935 103.924 29.9935C104.805 29.9935 105.578 29.7012 106.267 29.1025C106.969 28.4889 107.327 27.7369 107.327 26.8591ZM118.697 20.5497H113.529V24.0179H117.539V25.8008H113.529V31.5404L111.517 31.8327V18.7519H118.297L118.697 20.5497ZM122.845 19.532L121.605 21.0781L120.42 19.532L121.674 18L122.845 19.532ZM122.473 31.5537L120.626 31.8046V22.1232L122.473 21.8449V31.5537ZM130.811 21.7472L129.943 23.7248C129.829 23.7076 129.713 23.6984 129.598 23.6974C129.419 23.6974 129.24 23.7115 129.06 23.7388C128.88 23.7662 128.688 23.8365 128.482 23.9342C128.096 24.1015 127.765 24.4634 127.476 25.0066C127.156 25.6232 126.99 26.3064 126.993 26.9991V31.5404L125.147 31.8327V22.1232L126.856 21.8168V23.8365C127.076 23.4879 127.31 23.1401 127.531 22.7782C127.847 22.4155 128.22 22.1513 128.633 21.9973C128.853 21.9145 129.253 21.8441 129.859 21.7886C130.439 21.7472 130.77 21.7191 130.811 21.7472ZM144.564 31.5537L142.717 31.8187V25.1739C142.717 24.5603 142.58 24.1148 142.304 23.8365C142.028 23.5575 141.615 23.4183 141.077 23.4183C140.43 23.4183 139.933 23.6833 139.603 24.2125C139.382 24.5744 139.258 24.9644 139.258 25.3545V31.5396L137.412 31.8742V25.2153C137.412 24.6307 137.274 24.1844 137.012 23.8787C136.736 23.5715 136.378 23.4183 135.909 23.4183H135.73C135.082 23.4183 134.613 23.6833 134.324 24.2266C134.104 24.6307 133.994 25.1458 133.994 25.7727V31.5396L132.078 31.8742V22.1232L133.8 21.8308V23.0705C133.994 22.7774 134.186 22.5406 134.366 22.3741C134.862 21.9145 135.441 21.6909 136.088 21.6909C136.818 21.6909 137.355 21.8027 137.728 22.0395C138.045 22.2349 138.348 22.6242 138.651 23.1815C139.285 22.1927 140.181 21.6909 141.367 21.6909C142.496 21.6909 143.338 22.0395 143.888 22.75C144.344 23.3347 144.564 24.1984 144.564 25.3271V31.5537ZM153 28.6147C153 29.5058 152.683 30.2444 152.049 30.8158C151.416 31.4005 150.616 31.6795 149.651 31.6795C148.921 31.6795 148.273 31.5123 147.68 31.1777C147.088 30.844 146.647 30.4672 146.357 30.0217L147.653 28.8797C147.749 29.0188 147.832 29.1298 147.915 29.2134C148.398 29.7012 148.976 29.9521 149.651 29.9521C150.12 29.9521 150.492 29.827 150.754 29.5902C151.029 29.3534 151.154 29.0188 151.154 28.5866C151.154 28.0996 150.837 27.7651 150.203 27.5837C148.948 27.2077 148.273 26.999 148.177 26.9568C147.598 26.6645 147.184 26.3581 146.922 26.0095C146.633 25.6054 146.482 25.0762 146.482 24.3938C146.482 23.5575 146.798 22.8618 147.419 22.3045C148.039 21.7472 148.783 21.4822 149.637 21.4822C150.285 21.4822 150.891 21.6213 151.443 21.9145C151.994 22.2068 152.393 22.5132 152.628 22.8759L151.525 24.0593C151.359 23.8957 151.18 23.7466 150.988 23.6138C150.547 23.3074 150.12 23.1542 149.721 23.1542C149.334 23.1542 149.017 23.2378 148.769 23.4043C148.479 23.6138 148.328 23.9202 148.328 24.3243C148.328 24.7143 148.466 25.0066 148.756 25.188C149.004 25.3412 149.527 25.5085 150.354 25.689C151.18 25.8844 151.815 26.219 152.27 26.6926C152.78 27.1937 153 27.8206 153 28.6147Z" fill="#4385F4"/>
<path d="M32.7994 30.66C32.7994 30.66 30.8006 30.4611 30.8006 32.2423V40.1537H44.0006V42.528C44.0006 42.528 44.04 43.7143 42.8006 43.7143H30.8006V54H45.2006C45.2006 54 53.9194 52.6543 54 43.7143V30.66H32.7994ZM53.5989 18H27.6C18.1989 20.2149 18 27.9291 18 27.9291V54H28.0011V30.264C28.0011 28.2463 30 27.8914 30 27.8914H53.6006L53.5989 18Z" fill="#4385F4"/>
</svg>
