<svg width="182" height="72" viewBox="0 0 182 72" fill="none" xmlns="http://www.w3.org/2000/svg">
<rect width="182" height="72" rx="8" fill="#14142D"/>
<path opacity="0.7" d="M32.4991 17.75C32.9391 17.75 33.3425 17.78 33.7091 17.84C34.0825 17.9 34.4025 18.0133 34.6691 18.18C34.9358 18.34 35.1425 18.5633 35.2891 18.85C35.4358 19.13 35.5091 19.4933 35.5091 19.94C35.5091 20.3933 35.4358 20.7633 35.2891 21.05C35.1425 21.33 34.9358 21.55 34.6691 21.71C34.4025 21.87 34.0825 21.98 33.7091 22.04C33.3425 22.1 32.9391 22.13 32.4991 22.13H31.2491V25H30.2291V17.75H32.4991ZM31.2491 18.61V21.24H32.5791C32.8458 21.24 33.0925 21.23 33.3191 21.21C33.5525 21.1833 33.7525 21.1267 33.9191 21.04C34.0925 20.9467 34.2258 20.8167 34.3191 20.65C34.4191 20.4767 34.4691 20.24 34.4691 19.94C34.4691 19.6467 34.4191 19.4133 34.3191 19.24C34.2258 19.06 34.0925 18.9233 33.9191 18.83C33.7525 18.7367 33.5525 18.6767 33.3191 18.65C33.0925 18.6233 32.8458 18.61 32.5791 18.61H31.2491ZM39.4366 21.94C39.3432 21.9467 39.2499 21.95 39.1566 21.95C39.0699 21.95 38.9799 21.95 38.8866 21.95H37.6066V25H36.5866V17.75H38.8866C39.3266 17.75 39.7299 17.7767 40.0966 17.83C40.4699 17.8833 40.7899 17.9867 41.0566 18.14C41.3232 18.2933 41.5299 18.5067 41.6766 18.78C41.8299 19.0533 41.9066 19.4067 41.9066 19.84C41.9066 20.4133 41.7766 20.85 41.5166 21.15C41.2632 21.45 40.9132 21.66 40.4666 21.78L42.1466 25H41.0066L39.4366 21.94ZM37.6066 18.61V21.09H38.9666C39.2332 21.09 39.4799 21.08 39.7066 21.06C39.9399 21.0333 40.1399 20.98 40.3066 20.9C40.4799 20.8133 40.6132 20.69 40.7066 20.53C40.8066 20.3633 40.8566 20.14 40.8566 19.86C40.8566 19.58 40.8066 19.3567 40.7066 19.19C40.6132 19.0233 40.4799 18.9 40.3066 18.82C40.1399 18.7333 39.9399 18.6767 39.7066 18.65C39.4799 18.6233 39.2332 18.61 38.9666 18.61H37.6066ZM43.966 21.37C43.966 21.8367 44.026 22.25 44.146 22.61C44.2727 22.97 44.4393 23.2733 44.646 23.52C44.8593 23.7667 45.1093 23.9533 45.396 24.08C45.6827 24.2067 45.9927 24.27 46.326 24.27C46.6527 24.27 46.9593 24.2067 47.246 24.08C47.5393 23.9533 47.7893 23.7667 47.996 23.52C48.2093 23.2733 48.376 22.97 48.496 22.61C48.6227 22.25 48.686 21.8367 48.686 21.37C48.686 20.9033 48.6227 20.49 48.496 20.13C48.376 19.77 48.2093 19.47 47.996 19.23C47.7893 18.9833 47.5393 18.7967 47.246 18.67C46.9593 18.5433 46.6527 18.48 46.326 18.48C45.9927 18.48 45.6827 18.5433 45.396 18.67C45.1093 18.7967 44.8593 18.9833 44.646 19.23C44.4393 19.47 44.2727 19.77 44.146 20.13C44.026 20.49 43.966 20.9033 43.966 21.37ZM49.726 21.37C49.726 21.9167 49.646 22.42 49.486 22.88C49.3327 23.34 49.106 23.7367 48.806 24.07C48.5127 24.4033 48.156 24.6633 47.736 24.85C47.316 25.0367 46.846 25.13 46.326 25.13C45.806 25.13 45.336 25.0367 44.916 24.85C44.496 24.6633 44.136 24.4033 43.836 24.07C43.5427 23.7367 43.316 23.34 43.156 22.88C43.0027 22.42 42.926 21.9167 42.926 21.37C42.926 20.8233 43.0027 20.32 43.156 19.86C43.316 19.4 43.5427 19.0067 43.836 18.68C44.136 18.3467 44.496 18.0867 44.916 17.9C45.336 17.7133 45.806 17.62 46.326 17.62C46.846 17.62 47.316 17.7133 47.736 17.9C48.156 18.0867 48.5127 18.3467 48.806 18.68C49.106 19.0067 49.3327 19.4 49.486 19.86C49.646 20.32 49.726 20.8233 49.726 21.37ZM51.0983 17.75H55.8083V18.63H52.1183V20.83H55.5983V21.71H52.1183V25H51.0983V17.75ZM56.694 17.75H61.614V18.63H57.714V20.83H61.384V21.71H57.714V24.12H61.614V25H56.694V17.75ZM62.5268 19.6C62.5268 19.2533 62.6068 18.9567 62.7668 18.71C62.9335 18.4567 63.1435 18.25 63.3968 18.09C63.6501 17.93 63.9301 17.8133 64.2368 17.74C64.5501 17.66 64.8535 17.62 65.1468 17.62C65.4735 17.62 65.7868 17.66 66.0868 17.74C66.3868 17.8133 66.6568 17.93 66.8968 18.09C67.1435 18.25 67.3535 18.4567 67.5268 18.71C67.7001 18.9567 67.8235 19.2533 67.8968 19.6H66.9068C66.8468 19.3933 66.7535 19.22 66.6268 19.08C66.5001 18.9333 66.3535 18.8167 66.1868 18.73C66.0201 18.6367 65.8435 18.5733 65.6568 18.54C65.4701 18.5 65.2868 18.48 65.1068 18.48C64.9668 18.48 64.8068 18.4967 64.6268 18.53C64.4535 18.5633 64.2868 18.6233 64.1268 18.71C63.9668 18.79 63.8335 18.9 63.7268 19.04C63.6201 19.1733 63.5668 19.34 63.5668 19.54C63.5668 19.86 63.6768 20.1067 63.8968 20.28C64.1235 20.4533 64.4068 20.5767 64.7468 20.65L65.5868 20.84C65.8668 20.9 66.1501 20.9767 66.4368 21.07C66.7235 21.1567 66.9835 21.28 67.2168 21.44C67.4568 21.6 67.6501 21.8033 67.7968 22.05C67.9501 22.29 68.0268 22.5933 68.0268 22.96C68.0268 23.3133 67.9501 23.6267 67.7968 23.9C67.6435 24.1667 67.4401 24.3933 67.1868 24.58C66.9335 24.76 66.6401 24.8967 66.3068 24.99C65.9735 25.0833 65.6268 25.13 65.2668 25.13C64.8401 25.13 64.4535 25.0733 64.1068 24.96C63.7601 24.8467 63.4601 24.6867 63.2068 24.48C62.9535 24.2733 62.7468 24.0233 62.5868 23.73C62.4335 23.4367 62.3335 23.11 62.2868 22.75H63.2868C63.3801 23.25 63.5968 23.63 63.9368 23.89C64.2768 24.1433 64.7268 24.27 65.2868 24.27C65.8268 24.27 66.2435 24.1567 66.5368 23.93C66.8301 23.7033 66.9768 23.41 66.9768 23.05C66.9768 22.8633 66.9368 22.7 66.8568 22.56C66.7835 22.42 66.6768 22.3 66.5368 22.2C66.3968 22.1 66.2301 22.0167 66.0368 21.95C65.8501 21.8833 65.6435 21.8233 65.4168 21.77L64.5168 21.58C64.2701 21.5267 64.0268 21.45 63.7868 21.35C63.5468 21.25 63.3335 21.12 63.1468 20.96C62.9601 20.8 62.8101 20.61 62.6968 20.39C62.5835 20.1633 62.5268 19.9 62.5268 19.6ZM69.0307 19.6C69.0307 19.2533 69.1107 18.9567 69.2707 18.71C69.4374 18.4567 69.6474 18.25 69.9007 18.09C70.154 17.93 70.434 17.8133 70.7407 17.74C71.054 17.66 71.3574 17.62 71.6507 17.62C71.9774 17.62 72.2907 17.66 72.5907 17.74C72.8907 17.8133 73.1607 17.93 73.4007 18.09C73.6474 18.25 73.8574 18.4567 74.0307 18.71C74.204 18.9567 74.3274 19.2533 74.4007 19.6H73.4107C73.3507 19.3933 73.2574 19.22 73.1307 19.08C73.004 18.9333 72.8574 18.8167 72.6907 18.73C72.524 18.6367 72.3474 18.5733 72.1607 18.54C71.974 18.5 71.7907 18.48 71.6107 18.48C71.4707 18.48 71.3107 18.4967 71.1307 18.53C70.9574 18.5633 70.7907 18.6233 70.6307 18.71C70.4707 18.79 70.3374 18.9 70.2307 19.04C70.124 19.1733 70.0707 19.34 70.0707 19.54C70.0707 19.86 70.1807 20.1067 70.4007 20.28C70.6274 20.4533 70.9107 20.5767 71.2507 20.65L72.0907 20.84C72.3707 20.9 72.654 20.9767 72.9407 21.07C73.2274 21.1567 73.4874 21.28 73.7207 21.44C73.9607 21.6 74.154 21.8033 74.3007 22.05C74.454 22.29 74.5307 22.5933 74.5307 22.96C74.5307 23.3133 74.454 23.6267 74.3007 23.9C74.1474 24.1667 73.944 24.3933 73.6907 24.58C73.4374 24.76 73.144 24.8967 72.8107 24.99C72.4774 25.0833 72.1307 25.13 71.7707 25.13C71.344 25.13 70.9574 25.0733 70.6107 24.96C70.264 24.8467 69.964 24.6867 69.7107 24.48C69.4574 24.2733 69.2507 24.0233 69.0907 23.73C68.9374 23.4367 68.8374 23.11 68.7907 22.75H69.7907C69.884 23.25 70.1007 23.63 70.4407 23.89C70.7807 24.1433 71.2307 24.27 71.7907 24.27C72.3307 24.27 72.7474 24.1567 73.0407 23.93C73.334 23.7033 73.4807 23.41 73.4807 23.05C73.4807 22.8633 73.4407 22.7 73.3607 22.56C73.2874 22.42 73.1807 22.3 73.0407 22.2C72.9007 22.1 72.734 22.0167 72.5407 21.95C72.354 21.8833 72.1474 21.8233 71.9207 21.77L71.0207 21.58C70.774 21.5267 70.5307 21.45 70.2907 21.35C70.0507 21.25 69.8374 21.12 69.6507 20.96C69.464 20.8 69.314 20.61 69.2007 20.39C69.0874 20.1633 69.0307 19.9 69.0307 19.6ZM76.757 25H75.737V17.75H76.757V25ZM79.1711 21.37C79.1711 21.8367 79.2311 22.25 79.3511 22.61C79.4778 22.97 79.6444 23.2733 79.8511 23.52C80.0644 23.7667 80.3144 23.9533 80.6011 24.08C80.8878 24.2067 81.1978 24.27 81.5311 24.27C81.8578 24.27 82.1644 24.2067 82.4511 24.08C82.7444 23.9533 82.9944 23.7667 83.2011 23.52C83.4144 23.2733 83.5811 22.97 83.7011 22.61C83.8278 22.25 83.8911 21.8367 83.8911 21.37C83.8911 20.9033 83.8278 20.49 83.7011 20.13C83.5811 19.77 83.4144 19.47 83.2011 19.23C82.9944 18.9833 82.7444 18.7967 82.4511 18.67C82.1644 18.5433 81.8578 18.48 81.5311 18.48C81.1978 18.48 80.8878 18.5433 80.6011 18.67C80.3144 18.7967 80.0644 18.9833 79.8511 19.23C79.6444 19.47 79.4778 19.77 79.3511 20.13C79.2311 20.49 79.1711 20.9033 79.1711 21.37ZM84.9311 21.37C84.9311 21.9167 84.8511 22.42 84.6911 22.88C84.5378 23.34 84.3111 23.7367 84.0111 24.07C83.7178 24.4033 83.3611 24.6633 82.9411 24.85C82.5211 25.0367 82.0511 25.13 81.5311 25.13C81.0111 25.13 80.5411 25.0367 80.1211 24.85C79.7011 24.6633 79.3411 24.4033 79.0411 24.07C78.7478 23.7367 78.5211 23.34 78.3611 22.88C78.2078 22.42 78.1311 21.9167 78.1311 21.37C78.1311 20.8233 78.2078 20.32 78.3611 19.86C78.5211 19.4 78.7478 19.0067 79.0411 18.68C79.3411 18.3467 79.7011 18.0867 80.1211 17.9C80.5411 17.7133 81.0111 17.62 81.5311 17.62C82.0511 17.62 82.5211 17.7133 82.9411 17.9C83.3611 18.0867 83.7178 18.3467 84.0111 18.68C84.3111 19.0067 84.5378 19.4 84.6911 19.86C84.8511 20.32 84.9311 20.8233 84.9311 21.37ZM90.6434 25L87.3234 18.81V25H86.3034V17.75H87.8034L91.1134 23.92V17.75H92.1334V25H90.6434ZM95.6822 17.75H96.8622L99.5922 25H98.4922L97.9222 23.43H94.5922L94.0322 25H92.9922L95.6822 17.75ZM94.9022 22.56H97.6022L96.2422 18.78L94.9022 22.56ZM101.474 24.12H105.304V25H100.454V17.75H101.474V24.12ZM110.81 17.75C111.25 17.75 111.653 17.78 112.02 17.84C112.393 17.9 112.713 18.0133 112.98 18.18C113.246 18.34 113.453 18.5633 113.6 18.85C113.746 19.13 113.82 19.4933 113.82 19.94C113.82 20.3933 113.746 20.7633 113.6 21.05C113.453 21.33 113.246 21.55 112.98 21.71C112.713 21.87 112.393 21.98 112.02 22.04C111.653 22.1 111.25 22.13 110.81 22.13H109.56V25H108.54V17.75H110.81ZM109.56 18.61V21.24H110.89C111.156 21.24 111.403 21.23 111.63 21.21C111.863 21.1833 112.063 21.1267 112.23 21.04C112.403 20.9467 112.536 20.8167 112.63 20.65C112.73 20.4767 112.78 20.24 112.78 19.94C112.78 19.6467 112.73 19.4133 112.63 19.24C112.536 19.06 112.403 18.9233 112.23 18.83C112.063 18.7367 111.863 18.6767 111.63 18.65C111.403 18.6233 111.156 18.61 110.89 18.61H109.56ZM116.024 17.75H117.204L119.934 25H118.834L118.264 23.43H114.934L114.374 25H113.334L116.024 17.75ZM115.244 22.56H117.944L116.584 18.78L115.244 22.56ZM123.646 21.94C123.552 21.9467 123.459 21.95 123.366 21.95C123.279 21.95 123.189 21.95 123.096 21.95H121.816V25H120.796V17.75H123.096C123.536 17.75 123.939 17.7767 124.306 17.83C124.679 17.8833 124.999 17.9867 125.266 18.14C125.532 18.2933 125.739 18.5067 125.886 18.78C126.039 19.0533 126.116 19.4067 126.116 19.84C126.116 20.4133 125.986 20.85 125.726 21.15C125.472 21.45 125.122 21.66 124.676 21.78L126.356 25H125.216L123.646 21.94ZM121.816 18.61V21.09H123.176C123.442 21.09 123.689 21.08 123.916 21.06C124.149 21.0333 124.349 20.98 124.516 20.9C124.689 20.8133 124.822 20.69 124.916 20.53C125.016 20.3633 125.066 20.14 125.066 19.86C125.066 19.58 125.016 19.3567 124.916 19.19C124.822 19.0233 124.689 18.9 124.516 18.82C124.349 18.7333 124.149 18.6767 123.916 18.65C123.689 18.6233 123.442 18.61 123.176 18.61H121.816ZM128.78 18.63H126.42V17.75H132.16V18.63H129.8V25H128.78V18.63ZM137.362 25L134.042 18.81V25H133.022V17.75H134.522L137.832 23.92V17.75H138.852V25H137.362ZM140.571 17.75H145.491V18.63H141.591V20.83H145.261V21.71H141.591V24.12H145.491V25H140.571V17.75ZM149.554 21.94C149.46 21.9467 149.367 21.95 149.274 21.95C149.187 21.95 149.097 21.95 149.004 21.95H147.724V25H146.704V17.75H149.004C149.444 17.75 149.847 17.7767 150.214 17.83C150.587 17.8833 150.907 17.9867 151.174 18.14C151.44 18.2933 151.647 18.5067 151.794 18.78C151.947 19.0533 152.024 19.4067 152.024 19.84C152.024 20.4133 151.894 20.85 151.634 21.15C151.38 21.45 151.03 21.66 150.584 21.78L152.264 25H151.124L149.554 21.94ZM147.724 18.61V21.09H149.084C149.35 21.09 149.597 21.08 149.824 21.06C150.057 21.0333 150.257 20.98 150.424 20.9C150.597 20.8133 150.73 20.69 150.824 20.53C150.924 20.3633 150.974 20.14 150.974 19.86C150.974 19.58 150.924 19.3567 150.824 19.19C150.73 19.0233 150.597 18.9 150.424 18.82C150.257 18.7333 150.057 18.6767 149.824 18.65C149.597 18.6233 149.35 18.61 149.084 18.61H147.724Z" fill="white"/>
<g clip-path="url(#clip0_603_11338)">
<path d="M112.592 43.5183V54.2362H109.139V41.8398L112.592 43.5183Z" fill="#F37368"/>
<path d="M63.7246 52.2455L66.3143 54.4994L77.2243 48.8168L76.0974 46.1073L63.7246 52.2455ZM109.139 45.34L117.915 40.7843L116.429 38.2188L109.139 41.8393V45.34Z" fill="#F7A199"/>
<path d="M84.4418 42.6771V54.2342H81.1328V37.7617L84.4418 42.6771ZM63.7246 52.2441L66.3143 54.498L71.3017 42.0297L69.6952 37.7617L63.7246 52.2441Z" fill="#F37368"/>
<path d="M69.6934 37.7617H73.0983L79.4045 54.2342H75.9037L69.6934 37.7617ZM84.9435 37.7617L92.2089 49.0071V54.2342L81.131 37.7617H84.9435ZM98.4432 37.7617H101.872V54.2342H98.4432V37.7617ZM109.138 40.7829H103.862V37.7617H116.163L117.914 40.7829H112.59H109.138Z" fill="#F04939"/>
<path d="M128.055 47.9805V54.2386H124.65V47.9805" fill="#F7A199"/>
<path d="M130.405 37.7617L124.65 47.9761H128.055L134.026 37.7617H130.405Z" fill="#F04939"/>
<path d="M124.65 47.9761L118.703 37.7617H122.444L126.448 44.7631L124.65 47.9761Z" fill="#F37368"/>
<path d="M50.9435 39.6836C50.9435 41.9614 52.3582 43.3282 55.1876 44.0475L58.1849 44.7428C60.8705 45.3662 62.501 46.9008 62.501 49.3945C62.525 50.4734 62.1653 51.5284 61.5179 52.3916C61.5179 49.898 60.2231 48.5552 57.1299 47.74L54.1806 47.0686C51.8067 46.5411 49.9844 45.2703 49.9844 42.5609C49.9844 41.5299 50.3201 40.4988 50.9435 39.6836Z" fill="#F04939"/>
<path d="M92.207 48.1718V37.7656H95.516V54.2381H92.207V48.1718Z" fill="#F37368"/>
<path d="M59.669 48.7694C60.9399 49.5846 61.5154 50.7355 61.5154 52.39C60.4363 53.7567 58.59 54.5 56.408 54.5C52.7393 54.5 50.1257 52.6777 49.5742 49.5367H53.099C53.5546 50.9753 54.7535 51.6467 56.384 51.6467C58.3263 51.6707 59.6451 50.6157 59.669 48.7694ZM52.7873 43.0628C51.5884 42.3434 50.893 41.0487 50.941 39.658C51.972 38.3152 53.7464 37.5 55.9045 37.5C59.669 37.5 61.8271 39.4901 62.3786 42.2715H58.9737C58.59 41.1685 57.6549 40.3054 55.9524 40.3054C54.1061 40.3293 52.8592 41.3843 52.7873 43.0628Z" fill="#F37368"/>
</g>
<defs>
<clipPath id="clip0_603_11338">
<rect width="84.6641" height="17" fill="white" transform="translate(49.4707 37.5)"/>
</clipPath>
</defs>
</svg>
