<svg width="182" height="72" viewBox="0 0 182 72" fill="none" xmlns="http://www.w3.org/2000/svg">
<rect width="182" height="72" rx="8" fill="#14142D"/>
<path opacity="0.7" d="M32.4991 17.75C32.9391 17.75 33.3425 17.78 33.7091 17.84C34.0825 17.9 34.4025 18.0133 34.6691 18.18C34.9358 18.34 35.1425 18.5633 35.2891 18.85C35.4358 19.13 35.5091 19.4933 35.5091 19.94C35.5091 20.3933 35.4358 20.7633 35.2891 21.05C35.1425 21.33 34.9358 21.55 34.6691 21.71C34.4025 21.87 34.0825 21.98 33.7091 22.04C33.3425 22.1 32.9391 22.13 32.4991 22.13H31.2491V25H30.2291V17.75H32.4991ZM31.2491 18.61V21.24H32.5791C32.8458 21.24 33.0925 21.23 33.3191 21.21C33.5525 21.1833 33.7525 21.1267 33.9191 21.04C34.0925 20.9467 34.2258 20.8167 34.3191 20.65C34.4191 20.4767 34.4691 20.24 34.4691 19.94C34.4691 19.6467 34.4191 19.4133 34.3191 19.24C34.2258 19.06 34.0925 18.9233 33.9191 18.83C33.7525 18.7367 33.5525 18.6767 33.3191 18.65C33.0925 18.6233 32.8458 18.61 32.5791 18.61H31.2491ZM39.4366 21.94C39.3432 21.9467 39.2499 21.95 39.1566 21.95C39.0699 21.95 38.9799 21.95 38.8866 21.95H37.6066V25H36.5866V17.75H38.8866C39.3266 17.75 39.7299 17.7767 40.0966 17.83C40.4699 17.8833 40.7899 17.9867 41.0566 18.14C41.3232 18.2933 41.5299 18.5067 41.6766 18.78C41.8299 19.0533 41.9066 19.4067 41.9066 19.84C41.9066 20.4133 41.7766 20.85 41.5166 21.15C41.2632 21.45 40.9132 21.66 40.4666 21.78L42.1466 25H41.0066L39.4366 21.94ZM37.6066 18.61V21.09H38.9666C39.2332 21.09 39.4799 21.08 39.7066 21.06C39.9399 21.0333 40.1399 20.98 40.3066 20.9C40.4799 20.8133 40.6132 20.69 40.7066 20.53C40.8066 20.3633 40.8566 20.14 40.8566 19.86C40.8566 19.58 40.8066 19.3567 40.7066 19.19C40.6132 19.0233 40.4799 18.9 40.3066 18.82C40.1399 18.7333 39.9399 18.6767 39.7066 18.65C39.4799 18.6233 39.2332 18.61 38.9666 18.61H37.6066ZM43.966 21.37C43.966 21.8367 44.026 22.25 44.146 22.61C44.2727 22.97 44.4393 23.2733 44.646 23.52C44.8593 23.7667 45.1093 23.9533 45.396 24.08C45.6827 24.2067 45.9927 24.27 46.326 24.27C46.6527 24.27 46.9593 24.2067 47.246 24.08C47.5393 23.9533 47.7893 23.7667 47.996 23.52C48.2093 23.2733 48.376 22.97 48.496 22.61C48.6227 22.25 48.686 21.8367 48.686 21.37C48.686 20.9033 48.6227 20.49 48.496 20.13C48.376 19.77 48.2093 19.47 47.996 19.23C47.7893 18.9833 47.5393 18.7967 47.246 18.67C46.9593 18.5433 46.6527 18.48 46.326 18.48C45.9927 18.48 45.6827 18.5433 45.396 18.67C45.1093 18.7967 44.8593 18.9833 44.646 19.23C44.4393 19.47 44.2727 19.77 44.146 20.13C44.026 20.49 43.966 20.9033 43.966 21.37ZM49.726 21.37C49.726 21.9167 49.646 22.42 49.486 22.88C49.3327 23.34 49.106 23.7367 48.806 24.07C48.5127 24.4033 48.156 24.6633 47.736 24.85C47.316 25.0367 46.846 25.13 46.326 25.13C45.806 25.13 45.336 25.0367 44.916 24.85C44.496 24.6633 44.136 24.4033 43.836 24.07C43.5427 23.7367 43.316 23.34 43.156 22.88C43.0027 22.42 42.926 21.9167 42.926 21.37C42.926 20.8233 43.0027 20.32 43.156 19.86C43.316 19.4 43.5427 19.0067 43.836 18.68C44.136 18.3467 44.496 18.0867 44.916 17.9C45.336 17.7133 45.806 17.62 46.326 17.62C46.846 17.62 47.316 17.7133 47.736 17.9C48.156 18.0867 48.5127 18.3467 48.806 18.68C49.106 19.0067 49.3327 19.4 49.486 19.86C49.646 20.32 49.726 20.8233 49.726 21.37ZM51.0983 17.75H55.8083V18.63H52.1183V20.83H55.5983V21.71H52.1183V25H51.0983V17.75ZM56.694 17.75H61.614V18.63H57.714V20.83H61.384V21.71H57.714V24.12H61.614V25H56.694V17.75ZM62.5268 19.6C62.5268 19.2533 62.6068 18.9567 62.7668 18.71C62.9335 18.4567 63.1435 18.25 63.3968 18.09C63.6501 17.93 63.9301 17.8133 64.2368 17.74C64.5501 17.66 64.8535 17.62 65.1468 17.62C65.4735 17.62 65.7868 17.66 66.0868 17.74C66.3868 17.8133 66.6568 17.93 66.8968 18.09C67.1435 18.25 67.3535 18.4567 67.5268 18.71C67.7001 18.9567 67.8235 19.2533 67.8968 19.6H66.9068C66.8468 19.3933 66.7535 19.22 66.6268 19.08C66.5001 18.9333 66.3535 18.8167 66.1868 18.73C66.0201 18.6367 65.8435 18.5733 65.6568 18.54C65.4701 18.5 65.2868 18.48 65.1068 18.48C64.9668 18.48 64.8068 18.4967 64.6268 18.53C64.4535 18.5633 64.2868 18.6233 64.1268 18.71C63.9668 18.79 63.8335 18.9 63.7268 19.04C63.6201 19.1733 63.5668 19.34 63.5668 19.54C63.5668 19.86 63.6768 20.1067 63.8968 20.28C64.1235 20.4533 64.4068 20.5767 64.7468 20.65L65.5868 20.84C65.8668 20.9 66.1501 20.9767 66.4368 21.07C66.7235 21.1567 66.9835 21.28 67.2168 21.44C67.4568 21.6 67.6501 21.8033 67.7968 22.05C67.9501 22.29 68.0268 22.5933 68.0268 22.96C68.0268 23.3133 67.9501 23.6267 67.7968 23.9C67.6435 24.1667 67.4401 24.3933 67.1868 24.58C66.9335 24.76 66.6401 24.8967 66.3068 24.99C65.9735 25.0833 65.6268 25.13 65.2668 25.13C64.8401 25.13 64.4535 25.0733 64.1068 24.96C63.7601 24.8467 63.4601 24.6867 63.2068 24.48C62.9535 24.2733 62.7468 24.0233 62.5868 23.73C62.4335 23.4367 62.3335 23.11 62.2868 22.75H63.2868C63.3801 23.25 63.5968 23.63 63.9368 23.89C64.2768 24.1433 64.7268 24.27 65.2868 24.27C65.8268 24.27 66.2435 24.1567 66.5368 23.93C66.8301 23.7033 66.9768 23.41 66.9768 23.05C66.9768 22.8633 66.9368 22.7 66.8568 22.56C66.7835 22.42 66.6768 22.3 66.5368 22.2C66.3968 22.1 66.2301 22.0167 66.0368 21.95C65.8501 21.8833 65.6435 21.8233 65.4168 21.77L64.5168 21.58C64.2701 21.5267 64.0268 21.45 63.7868 21.35C63.5468 21.25 63.3335 21.12 63.1468 20.96C62.9601 20.8 62.8101 20.61 62.6968 20.39C62.5835 20.1633 62.5268 19.9 62.5268 19.6ZM69.0307 19.6C69.0307 19.2533 69.1107 18.9567 69.2707 18.71C69.4374 18.4567 69.6474 18.25 69.9007 18.09C70.154 17.93 70.434 17.8133 70.7407 17.74C71.054 17.66 71.3574 17.62 71.6507 17.62C71.9774 17.62 72.2907 17.66 72.5907 17.74C72.8907 17.8133 73.1607 17.93 73.4007 18.09C73.6474 18.25 73.8574 18.4567 74.0307 18.71C74.204 18.9567 74.3274 19.2533 74.4007 19.6H73.4107C73.3507 19.3933 73.2574 19.22 73.1307 19.08C73.004 18.9333 72.8574 18.8167 72.6907 18.73C72.524 18.6367 72.3474 18.5733 72.1607 18.54C71.974 18.5 71.7907 18.48 71.6107 18.48C71.4707 18.48 71.3107 18.4967 71.1307 18.53C70.9574 18.5633 70.7907 18.6233 70.6307 18.71C70.4707 18.79 70.3374 18.9 70.2307 19.04C70.124 19.1733 70.0707 19.34 70.0707 19.54C70.0707 19.86 70.1807 20.1067 70.4007 20.28C70.6274 20.4533 70.9107 20.5767 71.2507 20.65L72.0907 20.84C72.3707 20.9 72.654 20.9767 72.9407 21.07C73.2274 21.1567 73.4874 21.28 73.7207 21.44C73.9607 21.6 74.154 21.8033 74.3007 22.05C74.454 22.29 74.5307 22.5933 74.5307 22.96C74.5307 23.3133 74.454 23.6267 74.3007 23.9C74.1474 24.1667 73.944 24.3933 73.6907 24.58C73.4374 24.76 73.144 24.8967 72.8107 24.99C72.4774 25.0833 72.1307 25.13 71.7707 25.13C71.344 25.13 70.9574 25.0733 70.6107 24.96C70.264 24.8467 69.964 24.6867 69.7107 24.48C69.4574 24.2733 69.2507 24.0233 69.0907 23.73C68.9374 23.4367 68.8374 23.11 68.7907 22.75H69.7907C69.884 23.25 70.1007 23.63 70.4407 23.89C70.7807 24.1433 71.2307 24.27 71.7907 24.27C72.3307 24.27 72.7474 24.1567 73.0407 23.93C73.334 23.7033 73.4807 23.41 73.4807 23.05C73.4807 22.8633 73.4407 22.7 73.3607 22.56C73.2874 22.42 73.1807 22.3 73.0407 22.2C72.9007 22.1 72.734 22.0167 72.5407 21.95C72.354 21.8833 72.1474 21.8233 71.9207 21.77L71.0207 21.58C70.774 21.5267 70.5307 21.45 70.2907 21.35C70.0507 21.25 69.8374 21.12 69.6507 20.96C69.464 20.8 69.314 20.61 69.2007 20.39C69.0874 20.1633 69.0307 19.9 69.0307 19.6ZM76.757 25H75.737V17.75H76.757V25ZM79.1711 21.37C79.1711 21.8367 79.2311 22.25 79.3511 22.61C79.4778 22.97 79.6444 23.2733 79.8511 23.52C80.0644 23.7667 80.3144 23.9533 80.6011 24.08C80.8878 24.2067 81.1978 24.27 81.5311 24.27C81.8578 24.27 82.1644 24.2067 82.4511 24.08C82.7444 23.9533 82.9944 23.7667 83.2011 23.52C83.4144 23.2733 83.5811 22.97 83.7011 22.61C83.8278 22.25 83.8911 21.8367 83.8911 21.37C83.8911 20.9033 83.8278 20.49 83.7011 20.13C83.5811 19.77 83.4144 19.47 83.2011 19.23C82.9944 18.9833 82.7444 18.7967 82.4511 18.67C82.1644 18.5433 81.8578 18.48 81.5311 18.48C81.1978 18.48 80.8878 18.5433 80.6011 18.67C80.3144 18.7967 80.0644 18.9833 79.8511 19.23C79.6444 19.47 79.4778 19.77 79.3511 20.13C79.2311 20.49 79.1711 20.9033 79.1711 21.37ZM84.9311 21.37C84.9311 21.9167 84.8511 22.42 84.6911 22.88C84.5378 23.34 84.3111 23.7367 84.0111 24.07C83.7178 24.4033 83.3611 24.6633 82.9411 24.85C82.5211 25.0367 82.0511 25.13 81.5311 25.13C81.0111 25.13 80.5411 25.0367 80.1211 24.85C79.7011 24.6633 79.3411 24.4033 79.0411 24.07C78.7478 23.7367 78.5211 23.34 78.3611 22.88C78.2078 22.42 78.1311 21.9167 78.1311 21.37C78.1311 20.8233 78.2078 20.32 78.3611 19.86C78.5211 19.4 78.7478 19.0067 79.0411 18.68C79.3411 18.3467 79.7011 18.0867 80.1211 17.9C80.5411 17.7133 81.0111 17.62 81.5311 17.62C82.0511 17.62 82.5211 17.7133 82.9411 17.9C83.3611 18.0867 83.7178 18.3467 84.0111 18.68C84.3111 19.0067 84.5378 19.4 84.6911 19.86C84.8511 20.32 84.9311 20.8233 84.9311 21.37ZM90.6434 25L87.3234 18.81V25H86.3034V17.75H87.8034L91.1134 23.92V17.75H92.1334V25H90.6434ZM95.6822 17.75H96.8622L99.5922 25H98.4922L97.9222 23.43H94.5922L94.0322 25H92.9922L95.6822 17.75ZM94.9022 22.56H97.6022L96.2422 18.78L94.9022 22.56ZM101.474 24.12H105.304V25H100.454V17.75H101.474V24.12ZM110.81 17.75C111.25 17.75 111.653 17.78 112.02 17.84C112.393 17.9 112.713 18.0133 112.98 18.18C113.246 18.34 113.453 18.5633 113.6 18.85C113.746 19.13 113.82 19.4933 113.82 19.94C113.82 20.3933 113.746 20.7633 113.6 21.05C113.453 21.33 113.246 21.55 112.98 21.71C112.713 21.87 112.393 21.98 112.02 22.04C111.653 22.1 111.25 22.13 110.81 22.13H109.56V25H108.54V17.75H110.81ZM109.56 18.61V21.24H110.89C111.156 21.24 111.403 21.23 111.63 21.21C111.863 21.1833 112.063 21.1267 112.23 21.04C112.403 20.9467 112.536 20.8167 112.63 20.65C112.73 20.4767 112.78 20.24 112.78 19.94C112.78 19.6467 112.73 19.4133 112.63 19.24C112.536 19.06 112.403 18.9233 112.23 18.83C112.063 18.7367 111.863 18.6767 111.63 18.65C111.403 18.6233 111.156 18.61 110.89 18.61H109.56ZM116.024 17.75H117.204L119.934 25H118.834L118.264 23.43H114.934L114.374 25H113.334L116.024 17.75ZM115.244 22.56H117.944L116.584 18.78L115.244 22.56ZM123.646 21.94C123.552 21.9467 123.459 21.95 123.366 21.95C123.279 21.95 123.189 21.95 123.096 21.95H121.816V25H120.796V17.75H123.096C123.536 17.75 123.939 17.7767 124.306 17.83C124.679 17.8833 124.999 17.9867 125.266 18.14C125.532 18.2933 125.739 18.5067 125.886 18.78C126.039 19.0533 126.116 19.4067 126.116 19.84C126.116 20.4133 125.986 20.85 125.726 21.15C125.472 21.45 125.122 21.66 124.676 21.78L126.356 25H125.216L123.646 21.94ZM121.816 18.61V21.09H123.176C123.442 21.09 123.689 21.08 123.916 21.06C124.149 21.0333 124.349 20.98 124.516 20.9C124.689 20.8133 124.822 20.69 124.916 20.53C125.016 20.3633 125.066 20.14 125.066 19.86C125.066 19.58 125.016 19.3567 124.916 19.19C124.822 19.0233 124.689 18.9 124.516 18.82C124.349 18.7333 124.149 18.6767 123.916 18.65C123.689 18.6233 123.442 18.61 123.176 18.61H121.816ZM128.78 18.63H126.42V17.75H132.16V18.63H129.8V25H128.78V18.63ZM137.362 25L134.042 18.81V25H133.022V17.75H134.522L137.832 23.92V17.75H138.852V25H137.362ZM140.571 17.75H145.491V18.63H141.591V20.83H145.261V21.71H141.591V24.12H145.491V25H140.571V17.75ZM149.554 21.94C149.46 21.9467 149.367 21.95 149.274 21.95C149.187 21.95 149.097 21.95 149.004 21.95H147.724V25H146.704V17.75H149.004C149.444 17.75 149.847 17.7767 150.214 17.83C150.587 17.8833 150.907 17.9867 151.174 18.14C151.44 18.2933 151.647 18.5067 151.794 18.78C151.947 19.0533 152.024 19.4067 152.024 19.84C152.024 20.4133 151.894 20.85 151.634 21.15C151.38 21.45 151.03 21.66 150.584 21.78L152.264 25H151.124L149.554 21.94ZM147.724 18.61V21.09H149.084C149.35 21.09 149.597 21.08 149.824 21.06C150.057 21.0333 150.257 20.98 150.424 20.9C150.597 20.8133 150.73 20.69 150.824 20.53C150.924 20.3633 150.974 20.14 150.974 19.86C150.974 19.58 150.924 19.3567 150.824 19.19C150.73 19.0233 150.597 18.9 150.424 18.82C150.257 18.7333 150.057 18.6767 149.824 18.65C149.597 18.6233 149.35 18.61 149.084 18.61H147.724Z" fill="white"/>
<g clip-path="url(#clip0_603_11330)">
<path fill-rule="evenodd" clip-rule="evenodd" d="M69.5832 46.8092L71.0818 48.2835C71.2003 48.4004 71.2674 48.5594 71.2674 48.7245V49.5539C71.2674 51.7761 71.0321 52.5822 70.5903 53.395C70.1589 54.1976 69.4917 54.8543 68.6754 55.2798C67.8494 55.7136 67.0302 55.9452 64.7717 55.9452H60.8059C60.7547 55.945 60.7087 55.9145 60.6892 55.868C60.6697 55.8215 60.6806 55.768 60.7167 55.7325V55.733L62.2147 54.2587C62.3332 54.1418 62.4946 54.0759 62.6627 54.0759H64.4958C66.1895 54.0759 66.8034 53.9025 67.4229 53.5762C68.0352 53.2571 68.5357 52.7647 68.8594 52.1628C69.185 51.5636 69.3612 50.9691 69.367 49.3643L69.3671 46.8973C69.3674 46.8471 69.3983 46.802 69.4454 46.7828C69.4926 46.7636 69.5469 46.774 69.5832 46.8092ZM51.2161 45.5621L52.7152 47.0364C52.8337 47.1533 52.9008 47.3123 52.9008 47.4774V49.2813C52.9008 50.9484 53.0768 51.5528 53.4086 52.1623C53.7321 52.7641 54.2324 53.2565 54.8445 53.5756C55.464 53.9019 56.0784 54.0754 57.7722 54.0754H60.1949C60.2463 54.0752 60.2927 54.1055 60.3125 54.1521C60.3323 54.1987 60.3215 54.2524 60.2851 54.2881L58.786 55.7624C58.6676 55.8793 58.5062 55.9452 58.3386 55.9452H57.4957C55.2372 55.9452 54.4185 55.7136 53.5925 55.2793C52.776 54.8538 52.1086 54.1971 51.677 53.3944C51.2414 52.593 51.0066 51.798 51.0001 49.6451L51 45.6502C51.0003 45.6 51.0311 45.5549 51.0783 45.5357C51.1254 45.5165 51.1797 45.5269 51.2161 45.5621ZM80.8578 41.5546C81.4485 41.5546 81.98 41.6622 82.4522 41.8772C82.9244 42.0916 83.3267 42.3869 83.6596 42.7609C83.999 43.1475 84.2561 43.597 84.4156 44.0828C84.5877 44.5897 84.6735 45.1355 84.6735 45.7189C84.6781 46.2756 84.5856 46.8289 84.3998 47.3549C84.2309 47.8384 83.9717 48.2867 83.6353 48.6768C83.3092 49.0504 82.9059 49.3516 82.4522 49.5605C81.9786 49.7781 81.4613 49.8883 80.9384 49.883C80.5734 49.883 80.2518 49.8442 79.9725 49.7672C79.7142 49.6984 79.4656 49.5984 79.2323 49.4697C79.0354 49.3613 78.8518 49.2312 78.685 49.0818C78.5482 48.9591 78.4241 48.8234 78.3143 48.6768C78.2877 48.6768 78.2661 48.6978 78.2658 48.7239V52.7263C78.2658 53.1271 77.9349 53.4521 77.5267 53.4521H77.0736C76.6654 53.4521 76.3345 53.1271 76.3345 52.7263V42.4789C76.3345 42.0783 76.6651 41.7531 77.0736 41.7531H77.5634C77.8979 41.7531 78.1693 42.019 78.1693 42.3481V42.911C78.1693 42.9287 78.184 42.9426 78.2015 42.9426C78.4808 42.4578 78.856 42.106 79.3288 41.8849C79.8067 41.6635 80.3293 41.5507 80.8578 41.5546ZM66.4169 43.6922L67.9154 45.1682C68.0339 45.2851 68.1005 45.4435 68.1005 45.6092V50.3373C68.1005 51.7141 66.9665 52.8304 65.5672 52.8304H63.9632C63.9125 52.8302 63.8669 52.8004 63.847 52.7547C63.8272 52.7089 63.8369 52.656 63.8718 52.6199V52.6194L65.8239 50.6088C65.9593 50.4758 66.0575 50.3207 66.119 50.1545C66.1729 50.0137 66.2005 49.8644 66.2003 49.714V43.7803C66.2003 43.7299 66.2312 43.6845 66.2786 43.6652C66.3261 43.646 66.3806 43.6566 66.4169 43.6922ZM54.3813 48.6674H54.3807L56.4243 50.5888C56.5591 50.7218 56.7177 50.8182 56.8858 50.8786C57.0246 50.9307 57.1758 50.9589 57.3338 50.9589H63.3629C63.4141 50.9592 63.4601 50.9896 63.4796 51.0361C63.4991 51.0826 63.4882 51.1361 63.452 51.1717L61.9524 52.6465C61.8339 52.7628 61.6725 52.8288 61.5049 52.8288H56.7002C56.0276 52.828 55.3828 52.565 54.9077 52.0974C54.4326 51.6298 54.1661 50.9961 54.1669 50.3356V48.7572C54.1671 48.7075 54.1975 48.6626 54.244 48.6431C54.2906 48.6236 54.3446 48.6331 54.3813 48.6674ZM127.531 41.5547C128.025 41.5547 128.521 41.6511 129.021 41.8439C129.211 41.9176 129.435 42.0489 129.694 42.2379C129.864 42.3621 129.971 42.5521 129.989 42.7595C130.007 42.9669 129.933 43.1718 129.786 43.3221L129.487 43.6285C129.225 43.898 128.797 43.9282 128.498 43.6983C128.431 43.646 128.361 43.5979 128.288 43.5543C128.06 43.4163 127.799 43.342 127.531 43.3393C127.177 43.3393 126.86 43.4058 126.582 43.5376C126.309 43.6649 126.065 43.8446 125.865 44.0662C125.665 44.2881 125.512 44.5464 125.414 44.8263C125.312 45.113 125.261 45.4146 125.261 45.7183C125.261 46.0275 125.312 46.3244 125.414 46.6109C125.516 46.8973 125.666 47.151 125.866 47.371C126.066 47.5927 126.309 47.7726 126.582 47.9001C126.86 48.032 127.177 48.0984 127.531 48.0984C127.832 48.0984 128.111 48.0347 128.368 47.9084C128.421 47.8824 128.477 47.8475 128.538 47.8037C128.845 47.5813 129.275 47.6258 129.528 47.9062L129.822 48.2297C129.962 48.3849 130.025 48.5941 129.991 48.7992C129.957 49.0044 129.832 49.1839 129.649 49.2879C129.184 49.554 128.674 49.736 128.143 49.8254C127.907 49.8636 127.703 49.8831 127.531 49.8831C126.97 49.8862 126.413 49.7852 125.889 49.5855C125.39 49.3972 124.935 49.1104 124.553 48.7428C124.169 48.3675 123.865 47.9209 123.66 47.4292C123.439 46.9167 123.329 46.3466 123.329 45.7189C123.329 45.0911 123.439 44.521 123.66 44.0086C123.865 43.5168 124.169 43.0703 124.553 42.6949C124.935 42.3273 125.39 42.0405 125.889 41.8523C126.413 41.6525 126.97 41.5515 127.531 41.5547ZM100.306 41.5547C100.822 41.5547 101.332 41.6456 101.836 41.8273C102.019 41.8933 102.223 42.0151 102.448 42.193C102.614 42.3247 102.714 42.5208 102.723 42.7306C102.731 42.9405 102.646 43.1435 102.49 43.2872L102.25 43.5094C101.99 43.7494 101.592 43.7729 101.305 43.5653C100.913 43.2828 100.564 43.1409 100.259 43.1409C100.001 43.1409 99.7485 43.2074 99.5014 43.3393C99.2548 43.4717 99.1312 43.6861 99.1312 43.9836C99.1312 44.2263 99.2328 44.4025 99.437 44.5127C99.6413 44.6224 99.8986 44.7166 100.21 44.7936C100.521 44.8706 100.857 44.9504 101.216 45.033C101.576 45.1161 101.911 45.2424 102.223 45.413C102.534 45.5837 102.791 45.8175 102.995 46.1156C103.199 46.4131 103.301 46.8203 103.301 47.3383C103.301 47.812 103.202 48.2109 103.003 48.5361C102.812 48.8538 102.547 49.1227 102.23 49.3212C101.902 49.5243 101.54 49.6695 101.16 49.7506C100.769 49.8381 100.37 49.8825 99.9685 49.883C99.3677 49.883 98.8147 49.7943 98.3098 49.6187C98.1123 49.5495 97.8753 49.4109 97.5989 49.2026C97.4288 49.0746 97.3237 48.8804 97.3108 48.6703C97.2979 48.4602 97.3785 48.255 97.5317 48.1079L97.732 47.9151C98.0085 47.6488 98.4474 47.6372 98.738 47.8885C98.8554 47.9898 98.9569 48.068 99.0427 48.1228C99.327 48.3051 99.6734 48.396 100.081 48.396C100.221 48.396 100.366 48.3793 100.516 48.3461C100.666 48.3128 100.806 48.258 100.934 48.181C101.063 48.1034 101.168 48.0076 101.249 47.8918C101.329 47.776 101.369 47.6414 101.369 47.4873C101.369 47.2114 101.267 47.0075 101.063 46.8757C100.859 46.7433 100.602 46.6358 100.29 46.5532C99.9574 46.4658 99.6219 46.3887 99.2841 46.3222C98.9338 46.2536 98.5951 46.1367 98.2782 45.9748C97.9689 45.8169 97.7035 45.5871 97.5052 45.3056C97.3015 45.0191 97.1994 44.6224 97.1994 44.116C97.1994 43.6756 97.288 43.2927 97.4646 42.9675C97.6336 42.652 97.8732 42.3781 98.1653 42.1664C98.4657 41.952 98.8045 41.7948 99.164 41.7032C99.5365 41.6046 99.9207 41.5547 100.306 41.5547ZM120.513 41.7531C120.921 41.7531 121.252 42.0783 121.252 42.4789V48.9589C121.252 49.3597 120.921 49.6846 120.513 49.6846H120.06C119.652 49.6846 119.321 49.3597 119.321 48.9589V42.4789C119.321 42.0783 119.651 41.7531 120.06 41.7531H120.513ZM114.153 41.5547C114.668 41.5547 115.102 41.6428 115.457 41.819C115.801 41.9869 116.097 42.2368 116.318 42.5459C116.538 42.8545 116.696 43.2152 116.793 43.6285C116.89 44.0418 116.938 44.485 116.938 44.9582V48.9583C116.938 49.3591 116.607 49.6841 116.198 49.6841H115.745C115.337 49.6841 115.006 49.3591 115.006 48.9583V45.1898C115.006 44.9476 114.984 44.7133 114.941 44.4878C114.904 44.2774 114.828 44.0757 114.716 43.8928C114.609 43.723 114.46 43.5836 114.281 43.4883C114.098 43.3886 113.863 43.3393 113.573 43.3393C113.272 43.3393 113.017 43.3969 112.808 43.5127C112.602 43.6254 112.426 43.7838 112.293 43.9753C112.155 44.176 112.057 44.4002 112.003 44.6363C111.944 44.8827 111.914 45.135 111.914 45.3881V48.9589C111.914 49.3597 111.584 49.6846 111.175 49.6846H110.722C110.314 49.6846 109.983 49.3597 109.983 48.9589V44.9587C109.983 44.4629 109.881 44.0689 109.677 43.777C109.473 43.4856 109.135 43.3393 108.662 43.3393C108.341 43.3393 108.069 43.3947 107.849 43.5044C107.629 43.6152 107.447 43.7637 107.302 43.9509C107.155 44.143 107.048 44.3621 106.988 44.5953C106.923 44.8436 106.891 45.0991 106.892 45.3554V48.9589C106.892 49.1514 106.814 49.3361 106.675 49.4723C106.536 49.6084 106.348 49.6848 106.152 49.6846H105.699C105.29 49.6846 104.959 49.3597 104.959 48.9589V42.4789C104.959 42.0783 105.291 41.7531 105.699 41.7531H106.056C106.464 41.7531 106.795 42.0783 106.795 42.4789V42.9925C107.006 42.6027 107.3 42.2618 107.656 41.9924C108.037 41.7005 108.55 41.5547 109.194 41.5547C110.407 41.5547 111.211 42.0451 111.609 43.0251C111.888 42.5188 112.237 42.147 112.655 41.9099C113.074 41.6733 113.573 41.5547 114.153 41.5547ZM90.9689 41.5547C91.0868 41.5547 91.2025 41.5658 91.3147 41.588C91.516 41.6271 91.661 41.8004 91.6612 42.0018V43.09C91.6612 43.2074 91.6082 43.3188 91.5165 43.3941C91.4248 43.4694 91.3038 43.5009 91.1861 43.48C91.0348 43.4528 90.8813 43.4389 90.7274 43.4385C90.276 43.4385 89.9144 43.5238 89.6407 43.6944C89.3671 43.8656 89.1578 44.0606 89.0128 44.2817C88.8762 44.4828 88.7779 44.7065 88.7228 44.9421C88.6743 45.1626 88.6506 45.3277 88.6506 45.438V48.9589C88.6506 49.3597 88.3197 49.6846 87.9115 49.6846H87.4578C87.0496 49.6846 86.7187 49.3597 86.7187 48.9589V42.4789C86.7187 42.0783 87.0494 41.7531 87.4578 41.7531H88.0108C88.364 41.7531 88.6506 42.034 88.6506 42.3808V42.9775C88.6506 42.9947 88.6647 43.0091 88.6827 43.0091C88.8971 42.5459 89.2029 42.188 89.6001 41.9348C89.9973 41.6816 90.4538 41.5547 90.9689 41.5547ZM94.4478 41.7531C94.8557 41.7531 95.1869 42.0783 95.1869 42.4789V48.9589C95.1869 49.3597 94.856 49.6846 94.4478 49.6846H93.9942C93.586 49.6846 93.255 49.3597 93.255 48.9589V42.4789C93.255 42.0783 93.5857 41.7531 93.9942 41.7531H94.4478ZM58.3042 39.1164C58.3549 39.1167 58.4005 39.1465 58.4204 39.1922C58.4402 39.238 58.4305 39.2909 58.3956 39.327L56.4429 41.3381C56.3075 41.4711 56.2099 41.6262 56.1484 41.7924C56.0943 41.9332 56.0665 42.0824 56.0666 42.2329V48.1666C56.0661 48.2166 56.0351 48.2615 55.988 48.2806C55.9409 48.2997 55.8868 48.2893 55.8505 48.2541L54.3519 46.7782C54.2333 46.6612 54.1668 46.5028 54.1669 46.3377V41.6096C54.1669 40.2328 55.3009 39.1164 56.7002 39.1164H58.3042ZM80.4718 43.3393C80.1175 43.3393 79.8004 43.4058 79.5217 43.5376C79.2492 43.6649 79.0055 43.8446 78.8052 44.0662C78.6056 44.2881 78.4525 44.5464 78.3544 44.8263C78.2526 45.113 78.2011 45.4147 78.202 45.7183C78.202 46.0275 78.2528 46.3244 78.3544 46.6109C78.4565 46.8973 78.6066 47.151 78.8057 47.371C79.006 47.5927 79.2497 47.7727 79.5223 47.9001C79.801 48.032 80.1175 48.0984 80.4718 48.0984C80.8262 48.0984 81.1427 48.032 81.4214 47.9001C81.694 47.7727 81.9376 47.5927 82.1379 47.371C82.3365 47.151 82.4866 46.8973 82.5893 46.6109C82.6909 46.3244 82.7416 46.0275 82.7416 45.7189C82.7416 45.4103 82.6909 45.1127 82.5893 44.8269C82.4911 44.5467 82.3377 44.2882 82.1379 44.0662C81.9376 43.8446 81.6939 43.6649 81.4214 43.5376C81.1427 43.4052 80.8262 43.3393 80.4718 43.3393ZM68.6754 36.6659C69.4917 37.0915 70.1589 37.7482 70.5903 38.5508C71.026 39.3523 71.2608 40.1473 71.2673 42.3001L71.2674 46.2951C71.2674 46.3454 71.2364 46.3908 71.189 46.4101C71.1416 46.4294 71.087 46.4188 71.0507 46.3831V46.3826L69.5528 44.9089C69.4338 44.7918 69.3671 44.6332 69.3671 44.4679V42.6639C69.3671 40.9968 69.1906 40.3924 68.8594 39.7829C68.5357 39.1811 68.0352 38.6886 67.4229 38.3696C66.804 38.0433 66.1895 37.8699 64.4958 37.8699H62.0725C62.0213 37.8696 61.9753 37.8391 61.9558 37.7926C61.9363 37.7461 61.9472 37.6927 61.9834 37.6571L63.4814 36.1828C63.5998 36.0659 63.7612 36 63.9293 36H64.7717C67.0302 36 67.8494 36.2316 68.6754 36.6659ZM61.4615 36C61.5127 36.0003 61.5587 36.0307 61.5782 36.0772C61.5977 36.1237 61.5868 36.1772 61.5506 36.2127L60.0527 37.687C59.9336 37.8039 59.7728 37.8699 59.6047 37.8699H57.7716C56.0779 37.8699 55.4634 38.0433 54.8439 38.3696C54.2316 38.6886 53.7312 39.1811 53.4075 39.7829C53.0763 40.3924 52.8997 40.9968 52.8997 42.6639V45.0485C52.8994 45.0986 52.8686 45.1437 52.8214 45.163C52.7742 45.1822 52.7199 45.1718 52.6836 45.1366L51.1862 43.6623C51.067 43.5453 51 43.3867 51 43.2213V42.3919C51 40.1697 51.2353 39.3635 51.677 38.5508C52.1085 37.7482 52.7756 37.0915 53.592 36.6659C54.4065 36.2376 55.2144 36.0065 57.4019 36.0001L61.4615 36ZM65.5672 39.1164C66.9665 39.1164 68.1005 40.2328 68.1005 41.6096V43.188C68.1003 43.2378 68.0699 43.2826 68.0233 43.3021C67.9768 43.3216 67.9228 43.3121 67.8861 43.2778L65.8437 41.3564C65.7083 41.2234 65.5503 41.127 65.3816 41.0666C65.2385 41.0134 65.0867 40.9862 64.9336 40.9863H58.9045C58.8532 40.9863 58.807 40.9559 58.7873 40.9093C58.7677 40.8628 58.7786 40.8092 58.8148 40.7736L60.315 39.2987C60.4335 39.1824 60.5943 39.1164 60.7624 39.1164H65.5672ZM94.2046 37.8699C94.5589 37.8699 94.8568 37.9829 95.0983 38.2084C95.3398 38.4344 95.4605 38.7181 95.4605 39.0594C95.4605 39.4012 95.3398 39.6849 95.0983 39.9104C94.8568 40.1364 94.5589 40.2494 94.2046 40.2494C93.8508 40.2494 93.558 40.1309 93.3273 39.8943C93.1029 39.6727 92.9783 39.3719 92.9814 39.0594C92.9814 38.7403 93.0965 38.4621 93.3273 38.225C93.5586 37.9884 93.8508 37.8699 94.2046 37.8699ZM120.27 37.8699C120.625 37.8699 120.923 37.9829 121.164 38.2084C121.406 38.4344 121.526 38.7181 121.526 39.0594C121.526 39.4012 121.406 39.6849 121.164 39.9104C120.923 40.1364 120.625 40.2494 120.27 40.2494C119.916 40.2494 119.624 40.1309 119.393 39.8943C119.168 39.6727 119.044 39.372 119.047 39.0594C119.047 38.7403 119.162 38.4621 119.393 38.225C119.624 37.9884 119.916 37.8699 120.27 37.8699Z" fill="white"/>
</g>
<defs>
<clipPath id="clip0_603_11330">
<rect width="79" height="20" fill="white" transform="translate(51 36)"/>
</clipPath>
</defs>
</svg>
