<svg width="31" height="31" viewBox="0 0 31 31" fill="none" xmlns="http://www.w3.org/2000/svg">
<path d="M22.758 22.0271C21.1585 23.4414 19.0796 24.2306 16.8392 24.2306C11.7228 24.2306 8.03904 20.6129 8.03904 15.422C8.03904 10.2311 11.7174 6.76694 16.8392 6.76694C19.0796 6.76694 21.1585 7.39727 22.758 8.97043L23.8782 9.91327L28.6769 5.19378L27.5566 4.09204C24.5191 1.57603 20.8354 0.00287175 16.8392 0.00287175C7.7213 -0.156034 1 6.29552 1 15.422C1 24.2306 7.87748 31 16.8392 31C20.9969 31 24.8369 29.5857 27.8798 26.9108L29 25.8091L23.8836 20.7771L22.758 22.0271Z" fill="#02021E"/>
<path d="M16.6063 20.6615C19.4781 20.6615 21.8063 18.3483 21.8063 15.4948C21.8063 12.6413 19.4781 10.3281 16.6063 10.3281C13.7344 10.3281 11.4062 12.6413 11.4062 15.4948C11.4062 18.3483 13.7344 20.6615 16.6063 20.6615Z" fill="#EB4F3C"/>
</svg>
