<svg width="182" height="72" viewBox="0 0 182 72" fill="none" xmlns="http://www.w3.org/2000/svg">
<rect width="182" height="72" rx="8" fill="#14142D"/>
<path opacity="0.7" d="M23.7301 18.63H21.3701V17.75H27.1101V18.63H24.7501V25H23.7301V18.63ZM31.6414 25.13C29.5514 25.13 28.2414 23.56 28.2414 21.37C28.2414 19.18 29.5514 17.62 31.6414 17.62C33.7314 17.62 35.0414 19.18 35.0414 21.37C35.0414 23.56 33.7314 25.13 31.6414 25.13ZM31.6414 24.27C32.9614 24.27 34.0014 23.24 34.0014 21.37C34.0014 19.5 32.9614 18.48 31.6414 18.48C30.3214 18.48 29.2814 19.5 29.2814 21.37C29.2814 23.24 30.3214 24.27 31.6414 24.27ZM39.6837 17.75C41.4537 17.75 42.6937 18.15 42.6937 19.94C42.6937 21.74 41.4537 22.13 39.6837 22.13H38.4337V25H37.4137V17.75H39.6837ZM38.4337 18.61V21.24H39.7637C40.8237 21.24 41.6537 21.13 41.6537 19.94C41.6537 18.76 40.8237 18.61 39.7637 18.61H38.4337ZM44.5364 22.69V21.83H47.7164V22.69H44.5364ZM50.6564 25V19.33H48.9764V18.71C50.0164 18.67 50.5464 18.54 50.9464 17.75H51.5664V25H50.6564ZM59.2711 18.63H56.9111V17.75H62.6511V18.63H60.2911V25H59.2711V18.63ZM64.5133 17.75H69.4333V18.63H65.5333V20.83H69.2033V21.71H65.5333V24.12H69.4333V25H64.5133V17.75ZM73.4761 17.75H74.6561L77.3861 25H76.2861L75.7161 23.43H72.3861L71.8261 25H70.7861L73.4761 17.75ZM72.6961 22.56H75.3961L74.0361 18.78L72.6961 22.56ZM82.2677 25L80.2677 18.68V25H79.2477V17.75H80.9577L82.8077 23.79L84.6577 17.75H86.3677V25H85.3477V18.68L83.3477 25H82.2677ZM98.2486 23.84L99.5886 17.75H100.659L98.8486 25H97.6086L96.2086 19.04L94.8386 25H93.5986L91.7586 17.75H92.8786L94.2786 23.84L95.6186 17.75H96.8186L98.2486 23.84ZM105.62 25.13C103.53 25.13 102.22 23.56 102.22 21.37C102.22 19.18 103.53 17.62 105.62 17.62C107.71 17.62 109.02 19.18 109.02 21.37C109.02 23.56 107.71 25.13 105.62 25.13ZM105.62 24.27C106.94 24.27 107.98 23.24 107.98 21.37C107.98 19.5 106.94 18.48 105.62 18.48C104.3 18.48 103.26 19.5 103.26 21.37C103.26 23.24 104.3 24.27 105.62 24.27ZM114.242 21.94C114.062 21.95 113.882 21.95 113.692 21.95H112.412V25H111.392V17.75H113.692C115.462 17.75 116.712 18.1 116.712 19.84C116.712 20.99 116.162 21.54 115.272 21.78L116.952 25H115.812L114.242 21.94ZM112.412 18.61V21.09H113.772C114.832 21.09 115.662 20.98 115.662 19.86C115.662 18.74 114.832 18.61 113.772 18.61H112.412ZM120.199 24.12H124.029V25H119.179V17.75H120.199V24.12ZM127.872 17.75C130.172 17.75 131.822 18.61 131.822 21.37C131.822 24.14 130.172 25 127.872 25H125.892V17.75H127.872ZM127.842 18.61H126.912V24.14H127.842C129.342 24.14 130.782 23.84 130.782 21.37C130.782 18.91 129.342 18.61 127.842 18.61ZM139.879 23.84L141.219 17.75H142.289L140.479 25H139.239L137.839 19.04L136.469 25H135.229L133.389 17.75H134.509L135.909 23.84L137.249 17.75H138.449L139.879 23.84ZM145.328 25H144.308V17.75H145.328V25ZM150.032 17.75C152.332 17.75 153.982 18.61 153.982 21.37C153.982 24.14 152.332 25 150.032 25H148.052V17.75H150.032ZM150.002 18.61H149.072V24.14H150.002C151.502 24.14 152.942 23.84 152.942 21.37C152.942 18.91 151.502 18.61 150.002 18.61ZM156.357 17.75H161.277V18.63H157.377V20.83H161.047V21.71H157.377V24.12H161.277V25H156.357V17.75Z" fill="white"/>
<path d="M77.5766 43.6056C78.4223 43.6056 79.1078 42.9316 79.1078 42.1004C79.1078 41.269 78.4223 40.5952 77.5766 40.5952C76.7308 40.5952 76.0453 41.269 76.0453 42.1004C76.0453 42.9316 76.7308 43.6056 77.5766 43.6056ZM128.112 48.7483C127.879 48.5873 127.699 48.5606 127.55 48.8732C124.978 54.3471 120.644 51.6156 121.074 51.8559C122.036 51.4238 124.564 49.4312 124.182 46.6798C123.95 44.9983 122.481 44.2524 120.923 44.5195C118.201 44.9857 117.2 47.8698 117.71 50.4232C117.799 50.8618 117.959 51.2234 118.118 51.5777C115.043 54.0349 113.822 49.378 113.683 48.8215C113.678 48.7917 116.057 46.8424 116.719 42.1975C117.413 37.3294 115.833 36.443 114.217 36.4706C111.227 36.5218 110.418 42.6616 111.504 47.7786C111.413 47.8019 110.99 48.0322 110.31 48.058C109.821 46.5452 107.73 45.2191 107.183 45.7301C105.814 47.0084 107.515 49.5075 108.712 49.7035C107.993 54.0562 103.496 52.9782 104.333 47.5249C105.798 44.8522 106.911 40.8781 106.713 38.479C106.642 37.6296 106.003 36.4916 104.558 36.5481C101.778 36.6561 101.476 42.7976 101.802 47.1564C101.786 47.0491 101.631 47.686 100.492 48.0027C100.223 46.533 97.8144 45.0577 97.2475 45.767C96.1863 47.0945 98.0254 49.4614 98.8965 49.6265C98.1774 53.9791 93.6801 52.9011 94.5173 47.4477C95.9818 44.7752 97.0956 40.8011 96.8968 38.402C96.8264 37.5525 96.1875 36.4145 94.7421 36.4708C91.9624 36.579 91.6602 42.7204 91.9861 47.0793C91.9697 46.9702 91.8114 47.6281 90.6258 47.9396C90.5861 46.0328 88.1692 45.1584 87.5886 45.7668C86.5538 46.8514 87.8256 49.0766 89.0021 49.6265C88.2829 53.9791 83.7856 52.9011 84.6228 47.4477C86.0874 44.7752 87.2013 40.8011 87.0024 38.402C86.9321 37.5525 86.2931 36.4145 84.8477 36.4708C82.0681 36.579 81.8444 43.0292 82.1703 47.3879C81.2547 51.2428 78.1843 56.0569 78.5832 46.4133C78.6226 45.7368 78.6656 45.4799 78.3224 45.2266C78.0652 45.0298 77.4804 45.1245 77.1608 45.1323C76.7723 45.1476 76.6749 45.371 76.589 45.7087C76.389 46.5806 76.353 47.4259 76.3244 48.5792C76.3057 49.1187 76.2617 49.3705 76.0502 50.1061C75.8391 50.8416 74.6345 52.186 73.9749 51.9612C73.0599 51.652 73.3601 49.1136 73.5316 47.3696C73.6744 45.9913 73.2169 45.3724 72.0448 45.1473C71.3585 45.0068 70.9416 45.0283 70.2269 44.807C69.5511 44.5976 69.3982 43.3413 67.9568 43.76C67.1683 43.9892 67.6752 45.6308 67.4857 46.8475C66.5541 52.8327 64.6158 52.9971 63.7165 50.0897C67.7666 40.3419 64.8881 36.499 63.2032 36.499C61.4482 36.499 59.4422 37.6869 60.2916 45.2876C59.8786 45.1692 59.7516 45.1054 59.2994 45.1054C56.7422 45.1054 55 47.1369 55 49.6429C55 52.149 56.7424 54.1806 59.2996 54.1806C60.8092 54.1806 61.8691 53.5059 62.6718 52.4622C63.1955 53.1993 63.8333 54.1919 64.9995 54.1473C68.4757 54.0142 69.4867 47.0068 69.6061 46.6159C69.9777 46.6722 70.3292 46.7788 70.6724 46.8351C71.2442 46.9194 71.2858 47.1418 71.2728 47.707C71.1213 52.4729 72.0162 54.1416 74.0462 54.1416C75.1772 54.1416 76.1853 53.0495 76.8798 52.2687C77.3985 53.3207 78.225 54.1094 79.3338 54.1415C82.0206 54.2071 83.0493 49.9987 82.9555 50.5526C82.8819 50.9871 83.8272 54.1178 86.5932 54.1291C90.0195 54.1433 90.6564 50.4405 90.7323 49.8203C90.7419 49.6969 90.7461 49.7097 90.7323 49.8203L90.7297 49.8579C91.8175 49.6591 92.3787 49.086 92.3787 49.086C92.3787 49.086 93.2522 54.1867 96.4875 54.1293C99.8473 54.0694 100.481 50.7223 100.564 50.0697C100.575 49.9148 100.581 49.9329 100.564 50.0697C100.564 50.076 100.563 50.0824 100.563 50.0888C101.855 49.6269 102.195 49.1633 102.195 49.1633C102.195 49.1633 102.889 54.1626 106.303 54.2063C109.346 54.2454 110.474 51.1833 110.481 49.9016C110.994 49.907 111.943 49.6023 111.921 49.585C111.921 49.585 113.036 53.9561 116.148 54.1806C117.609 54.286 118.706 53.3725 119.331 52.9558C120.799 54.1246 125.69 55.6174 128.777 50.4727C129.213 49.7344 128.276 48.8622 128.112 48.7483ZM59.1762 52.4835C57.6842 52.4835 56.7275 51.1278 56.7275 49.666C56.7275 48.2044 57.6057 46.8487 59.0977 46.8487C59.7691 46.8487 60.1426 46.9213 60.6654 47.3682C60.7602 47.7354 61.029 48.5823 61.1597 48.967C61.3349 49.4817 61.5433 49.9198 61.7535 50.3966C61.4533 51.6195 60.4692 52.4835 59.1762 52.4835ZM62.8119 47.4111C62.7498 47.314 62.7628 47.3737 62.6934 47.2819C62.4199 46.5508 61.8929 44.919 61.8318 43.0655C61.7628 40.9687 62.1184 38.5111 63.1668 38.5111C63.8771 38.5111 64.6321 43.492 62.8118 47.4111H62.8119ZM83.8193 45.2265C83.651 43.9822 83.6422 38.4355 84.9972 38.5882C85.7454 38.886 84.5228 44.1201 83.8193 45.2265ZM93.7137 45.2265C93.5454 43.9822 93.5366 38.4355 94.8916 38.5882C95.6398 38.886 94.4173 44.1201 93.7137 45.2265ZM103.53 45.3038C103.361 44.0594 103.353 38.5126 104.707 38.6654C105.456 38.9632 104.233 44.1974 103.53 45.3038ZM114.366 38.2636C115.605 38.1373 115.554 43.4538 113.067 46.8102C112.747 45.5971 112.255 38.6801 114.366 38.2634V38.2636ZM119.573 49.7035C119.176 47.7283 120.204 46.431 121.264 46.2887C121.634 46.2306 122.171 46.4665 122.278 46.9074C122.454 47.7383 122.252 48.9709 119.88 50.5348C119.884 50.5482 119.662 50.1434 119.574 49.7035H119.573Z" fill="#E84F8A"/>
</svg>
