<svg width="168" height="72" viewBox="0 0 168 72" fill="none" xmlns="http://www.w3.org/2000/svg">
<rect width="168" height="72" rx="8" fill="#14142D"/>
<path opacity="0.7" d="M21.6319 25.94L23.2019 29H24.3419L22.6619 25.78C23.6219 25.52 24.1019 24.88 24.1019 23.84C24.1019 23.42 24.0219 23.07 23.8819 22.79C23.7419 22.51 23.5219 22.29 23.2419 22.14C22.9619 22 22.6519 21.9 22.3119 21.84C21.9719 21.78 21.5619 21.75 21.0819 21.75H18.7819V29H19.8019V25.95H21.0819C21.3219 25.95 21.5119 25.95 21.6319 25.94ZM19.8019 22.61H21.1619C21.4019 22.61 21.6019 22.62 21.7719 22.63C21.9319 22.65 22.1019 22.68 22.2819 22.73C22.4519 22.78 22.5919 22.85 22.6919 22.94C22.7919 23.03 22.8819 23.15 22.9519 23.3C23.0119 23.46 23.0519 23.64 23.0519 23.86C23.0519 24.08 23.0119 24.27 22.9519 24.42C22.8819 24.58 22.7919 24.7 22.6919 24.78C22.5919 24.87 22.4519 24.94 22.2719 24.98C22.0919 25.03 21.9219 25.06 21.7619 25.07C21.6019 25.09 21.4019 25.09 21.1619 25.09H19.8019V22.61ZM25.569 21.75V29H30.489V28.12H26.589V25.71H30.259V24.83H26.589V22.63H30.489V21.75H25.569ZM32.0718 21.75H30.9518L33.4418 29H34.6618L37.1218 21.75H36.0518L34.0818 27.95L32.0718 21.75ZM39.0988 29V21.75H38.0788V29H39.0988ZM40.8229 21.75V29H45.7429V28.12H41.8429V25.71H45.5129V24.83H41.8429V22.63H45.7429V21.75H40.8229ZM52.7457 27.84L51.3157 21.75H50.1157L48.7757 27.84L47.3757 21.75H46.2557L48.0957 29H49.3357L50.7057 23.04L52.1057 29H53.3457L55.1557 21.75H54.0857L52.7457 27.84ZM56.1745 21.75V29H61.0945V28.12H57.1945V25.71H60.8645V24.83H57.1945V22.63H61.0945V21.75H56.1745ZM64.2873 21.75H62.3073V29H64.2873C64.8873 29 65.4173 28.94 65.8773 28.82C66.3373 28.7 66.7573 28.51 67.1173 28.23C67.4773 27.96 67.7573 27.58 67.9473 27.1C68.1373 26.62 68.2373 26.05 68.2373 25.37C68.2373 24.07 67.8873 23.15 67.1973 22.59C66.4973 22.03 65.5273 21.75 64.2873 21.75ZM64.2573 22.61C64.5973 22.61 64.8873 22.63 65.1473 22.66C65.3973 22.7 65.6573 22.77 65.9273 22.88C66.1973 22.99 66.4173 23.14 66.5973 23.33C66.7673 23.53 66.9073 23.8 67.0273 24.14C67.1373 24.49 67.1973 24.9 67.1973 25.37C67.1973 25.85 67.1373 26.27 67.0273 26.61C66.9073 26.95 66.7673 27.22 66.5973 27.42C66.4273 27.62 66.2073 27.77 65.9373 27.88C65.6573 27.99 65.3973 28.06 65.1473 28.09C64.8873 28.13 64.5973 28.14 64.2573 28.14H63.3273V22.61H64.2573ZM75.035 29.13C76.065 29.13 76.885 28.78 77.505 28.08C78.125 27.38 78.435 26.48 78.435 25.37C78.435 24.27 78.125 23.37 77.505 22.67C76.885 21.97 76.065 21.62 75.035 21.62C73.995 21.62 73.175 21.97 72.555 22.67C71.935 23.37 71.635 24.27 71.635 25.37C71.635 26.48 71.935 27.38 72.555 28.08C73.175 28.78 73.995 29.13 75.035 29.13ZM75.035 28.27C74.345 28.27 73.775 28.02 73.335 27.5C72.895 26.99 72.675 26.28 72.675 25.37C72.675 24.47 72.895 23.76 73.335 23.25C73.775 22.74 74.345 22.48 75.035 22.48C75.715 22.48 76.285 22.74 76.725 23.25C77.165 23.76 77.395 24.47 77.395 25.37C77.395 26.28 77.165 26.99 76.725 27.5C76.285 28.02 75.715 28.27 75.035 28.27ZM84.1473 29H85.6373V21.75H84.6173V27.92L81.3073 21.75H79.8073V29H80.8273V22.81L84.1473 29Z" fill="white"/>
<path opacity="0.54" d="M93.0709 42H98.0909V42.85C96.3009 44.3 95.1909 46.54 95.0209 49.25H93.9209C94.0809 46.65 95.2309 44.41 97.0309 42.85H93.0709V42ZM101.388 49.38C99.4579 49.38 98.5679 47.92 98.5679 45.62C98.5679 43.33 99.4579 41.87 101.388 41.87C103.318 41.87 104.208 43.33 104.208 45.62C104.208 47.92 103.318 49.38 101.388 49.38ZM101.388 42.63C100.248 42.63 99.5379 43.61 99.5379 45.62C99.5379 47.64 100.248 48.62 101.388 48.62C102.528 48.62 103.238 47.64 103.238 45.62C103.238 43.61 102.528 42.63 101.388 42.63ZM107.639 49.25V46.99H105.379V46.13H107.639V43.93H108.549V46.13H110.809V46.99H108.549V49.25H107.639ZM117.56 46.19C117.38 46.2 117.2 46.2 117.01 46.2H115.73V49.25H114.71V42H117.01C118.78 42 120.03 42.35 120.03 44.09C120.03 45.24 119.48 45.79 118.59 46.03L120.27 49.25H119.13L117.56 46.19ZM115.73 42.86V45.34H117.09C118.15 45.34 118.98 45.23 118.98 44.11C118.98 42.99 118.15 42.86 117.09 42.86H115.73ZM121.497 42H126.417V42.88H122.517V45.08H126.187V45.96H122.517V48.37H126.417V49.25H121.497V42ZM128 42L130.01 48.2L131.98 42H133.05L130.59 49.25H129.37L126.88 42H128ZM135.026 49.25H134.006V42H135.026V49.25ZM136.751 42H141.671V42.88H137.771V45.08H141.441V45.96H137.771V48.37H141.671V49.25H136.751V42ZM148.673 48.09L150.013 42H151.083L149.273 49.25H148.033L146.633 43.29L145.263 49.25H144.023L142.183 42H143.303L144.703 48.09L146.043 42H147.243L148.673 48.09ZM154.422 41.87C155.722 41.87 156.892 42.45 157.172 43.85H156.182C155.932 43.01 155.112 42.73 154.382 42.73C153.822 42.73 152.842 42.98 152.842 43.79C152.842 44.43 153.352 44.75 154.022 44.9L154.862 45.09C155.972 45.33 157.302 45.75 157.302 47.21C157.302 48.63 155.982 49.38 154.542 49.38C152.832 49.38 151.752 48.45 151.562 47H152.562C152.752 48 153.452 48.52 154.562 48.52C155.632 48.52 156.252 48.01 156.252 47.3C156.252 46.54 155.602 46.22 154.692 46.02L153.792 45.83C152.802 45.61 151.802 45.06 151.802 43.85C151.802 42.47 153.252 41.87 154.422 41.87Z" fill="white"/>
<path d="M37.7176 36H34.8125V53.6109H37.7176V36Z" fill="white"/>
<path d="M47.8956 48.0135C47.8956 50.6608 45.5584 50.9075 44.9267 50.9075C43.2211 50.9075 42.8426 49.3071 42.8426 48.3203V41.6719H39.9375V48.3825C39.9375 50.0451 40.5053 51.3988 41.39 52.3856C42.2109 53.1858 43.4742 53.617 44.8651 53.617C45.8752 53.617 47.2023 53.3703 47.8339 52.6323V53.617H50.739V41.6719H47.8339V48.0135H47.8956Z" fill="white"/>
<path d="M56.4827 37.4219H53.5777V41.6717H51.4297V44.5036H53.5777V53.6169H56.4827V44.5036H58.6307V41.6717H56.4827V37.4219Z" fill="white"/>
<path d="M67.7403 50.0429C67.1087 50.5964 66.2878 50.9053 65.4031 50.9053C63.3827 50.9053 61.928 49.4894 61.928 47.4578C61.928 45.4261 63.3806 44.0703 65.4031 44.0703C66.2878 44.0703 67.1087 44.317 67.7403 44.9327L68.1826 45.3018L70.0775 43.4546L69.6352 43.0234C68.4357 42.0387 66.9811 41.423 65.4031 41.423C61.8026 41.3608 59.1484 43.8858 59.1484 47.4578C59.1484 50.9053 61.8642 53.5547 65.4031 53.5547C67.0449 53.5547 68.5612 53.0012 69.7628 51.9543L70.2051 51.5231L68.1848 49.5537L67.7403 50.0429Z" fill="white"/>
<path d="M80.4925 42.7127C79.6716 41.9125 78.6615 41.4813 77.3344 41.4813C76.3242 41.4813 75.2502 41.728 74.491 42.466V36H71.5859V53.6109H74.491V46.9604C74.491 44.3131 76.5114 44.0664 77.1451 44.0664C78.8507 44.0664 78.8507 45.6668 78.8507 46.6536V53.6109H81.7558V46.5914C81.8196 45.0511 81.441 43.6352 80.4925 42.7127Z" fill="white"/>
<path d="M65.2639 49.5476C66.4149 49.5476 67.348 48.638 67.348 47.516C67.348 46.394 66.4149 45.4844 65.2639 45.4844C64.1128 45.4844 63.1797 46.394 63.1797 47.516C63.1797 48.638 64.1128 49.5476 65.2639 49.5476Z" fill="#FF3D2E"/>
<path d="M30.8365 49.1754C29.7625 50.2223 28.1824 50.838 26.6682 50.838C23.3825 50.838 21.0452 48.3752 21.0452 44.9877C21.0452 41.6003 23.3825 39.1375 26.6044 39.1375C28.1207 39.1375 29.5733 39.7532 30.7727 40.8001L31.2151 41.2313L33.11 39.3842L32.6676 38.9529C31.0258 37.3525 28.8778 36.4922 26.6044 36.4922C21.8023 36.5523 18.2656 40.1864 18.2656 45.0499C18.2656 49.9155 21.8023 53.5475 26.6044 53.5475C28.9416 53.5475 31.1534 52.6851 32.6676 51.0847L33.11 50.6535L31.2151 48.6841L30.8365 49.1754Z" fill="white"/>
<path d="M95.0339 29.0338C94.9366 29.0338 94.8254 29.006 94.742 28.9364C94.5752 28.8111 94.5057 28.6162 94.5474 28.4213L95.0895 25.9713C95.1034 25.8878 95.0756 25.8182 95.02 25.7625L93.1295 24.0921C92.9766 23.9529 92.921 23.744 92.9905 23.5631C93.06 23.3682 93.2129 23.229 93.4214 23.2151L95.9097 22.9784C95.9931 22.9645 96.0626 22.9227 96.0904 22.8531L97.0912 20.5563C97.1746 20.3753 97.3553 20.25 97.5499 20.25C97.7584 20.25 97.9391 20.3614 98.0086 20.5563L99.0095 22.8531C99.0373 22.9227 99.1068 22.9784 99.1902 22.9784L101.678 23.2151C101.887 23.229 102.054 23.3682 102.109 23.5631C102.179 23.758 102.123 23.9668 101.97 24.106L100.094 25.7764C100.038 25.8321 100.01 25.9156 100.024 25.9852L100.566 28.4352C100.608 28.6301 100.539 28.8389 100.372 28.9503C100.205 29.0756 99.9964 29.0756 99.8157 28.9781L97.6611 27.7114C97.5916 27.6696 97.5082 27.6696 97.4387 27.7114L95.2841 28.9642C95.2007 29.006 95.1173 29.0338 95.0339 29.0338Z" fill="#FF3D2E"/>
<path d="M117.132 29.0338C117.035 29.0338 116.924 29.006 116.84 28.9364C116.674 28.8111 116.604 28.6162 116.646 28.4213L117.188 25.9713C117.202 25.8878 117.174 25.8182 117.118 25.7625L115.228 24.0921C115.075 23.9529 115.019 23.744 115.089 23.5631C115.158 23.3682 115.311 23.229 115.52 23.2151L118.008 22.9784C118.092 22.9645 118.161 22.9227 118.189 22.8531L119.19 20.5563C119.273 20.3753 119.454 20.25 119.648 20.25C119.857 20.25 120.038 20.3614 120.107 20.5563L121.108 22.8531C121.136 22.9227 121.205 22.9784 121.289 22.9784L123.777 23.2151C123.985 23.229 124.152 23.3682 124.208 23.5631C124.277 23.758 124.222 23.9668 124.069 24.106L122.192 25.7764C122.137 25.8321 122.109 25.9156 122.123 25.9852L122.665 28.4352C122.707 28.6301 122.637 28.8389 122.47 28.9503C122.303 29.0756 122.095 29.0756 121.914 28.9781L119.76 27.7114C119.69 27.6696 119.607 27.6696 119.537 27.7114L117.383 28.9642C117.299 29.006 117.216 29.0338 117.132 29.0338Z" fill="#FF3D2E"/>
<path d="M105.37 29.0338C105.273 29.0338 105.161 29.006 105.078 28.9364C104.911 28.8111 104.842 28.6162 104.883 28.4213L105.425 25.9713C105.439 25.8878 105.412 25.8182 105.356 25.7625L103.465 24.0921C103.313 23.9529 103.257 23.744 103.326 23.5631C103.396 23.3682 103.549 23.229 103.757 23.2151L106.246 22.9784C106.329 22.9645 106.398 22.9227 106.426 22.8531L107.427 20.5563C107.511 20.3753 107.691 20.25 107.886 20.25C108.094 20.25 108.275 20.3614 108.345 20.5563L109.345 22.8531C109.373 22.9227 109.443 22.9784 109.526 22.9784L112.014 23.2151C112.223 23.229 112.39 23.3682 112.445 23.5631C112.515 23.758 112.459 23.9668 112.306 24.106L110.43 25.7764C110.374 25.8321 110.346 25.9156 110.36 25.9852L110.902 28.4352C110.944 28.6301 110.874 28.8389 110.708 28.9503C110.541 29.0756 110.332 29.0756 110.152 28.9781L107.997 27.7114C107.928 27.6696 107.844 27.6696 107.775 27.7114L105.62 28.9642C105.537 29.006 105.453 29.0338 105.37 29.0338Z" fill="#FF3D2E"/>
<path d="M128.182 29.0338C128.084 29.0338 127.973 29.006 127.89 28.9364C127.723 28.8111 127.653 28.6162 127.695 28.4213L128.237 25.9713C128.251 25.8878 128.223 25.8182 128.168 25.7625L126.277 24.0921C126.124 23.9529 126.069 23.744 126.138 23.5631C126.208 23.3682 126.361 23.229 126.569 23.2151L129.057 22.9784C129.141 22.9645 129.21 22.9227 129.238 22.8531L130.239 20.5563C130.322 20.3753 130.503 20.25 130.698 20.25C130.906 20.25 131.087 20.3614 131.156 20.5563L132.157 22.8531C132.185 22.9227 132.255 22.9784 132.338 22.9784L134.826 23.2151C135.035 23.229 135.202 23.3682 135.257 23.5631C135.327 23.758 135.271 23.9668 135.118 24.106L133.242 25.7764C133.186 25.8321 133.158 25.9156 133.172 25.9852L133.714 28.4352C133.756 28.6301 133.686 28.8389 133.52 28.9503C133.353 29.0756 133.144 29.0756 132.964 28.9781L130.809 27.7114C130.739 27.6696 130.656 27.6696 130.587 27.7114L128.432 28.9642C128.349 29.006 128.265 29.0338 128.182 29.0338Z" fill="#FF3D2E"/>
<path d="M139.231 29.0338C139.134 29.0338 139.022 29.006 138.939 28.9364C138.772 28.8111 138.703 28.6162 138.744 28.4213L139.287 25.9713C139.3 25.8878 139.273 25.8182 139.217 25.7625L137.327 24.0921C137.174 23.9529 137.118 23.744 137.188 23.5631C137.257 23.3682 137.41 23.229 137.618 23.2151L140.107 22.9784C140.19 22.9645 140.26 22.9227 140.287 22.8531L141.288 20.5563C141.372 20.3753 141.552 20.25 141.747 20.25C141.955 20.25 142.136 20.3614 142.206 20.5563L143.207 22.8531C143.234 22.9227 143.304 22.9784 143.387 22.9784L145.875 23.2151C146.084 23.229 146.251 23.3682 146.306 23.5631C146.376 23.758 146.32 23.9668 146.167 24.106L144.291 25.7764C144.235 25.8321 144.207 25.9156 144.221 25.9852L144.763 28.4352C144.805 28.6301 144.736 28.8389 144.569 28.9503C144.402 29.0756 144.193 29.0756 144.013 28.9781L141.858 27.7114C141.789 27.6696 141.705 27.6696 141.636 27.7114L139.481 28.9642C139.398 29.006 139.314 29.0338 139.231 29.0338Z" fill="#FF3D2E"/>
</svg>
