<svg width="154" height="31" viewBox="0 0 154 31" fill="none" xmlns="http://www.w3.org/2000/svg">
<path d="M46.744 8.95V22H44.17V8.95H46.744ZM60.0899 22H56.7419L51.5219 12.046V22H49.0919V8.95H52.4399L57.6599 18.904V8.95H60.0899V22ZM65.6377 12.01C64.9297 12.838 64.5757 13.99 64.5757 15.466C64.5757 16.942 64.9297 18.1 65.6377 18.94C66.3457 19.768 67.2337 20.182 68.3017 20.182C69.3697 20.182 70.2577 19.768 70.9657 18.94C71.6737 18.1 72.0277 16.942 72.0277 15.466C72.0277 13.99 71.6737 12.838 70.9657 12.01C70.2577 11.182 69.3697 10.768 68.3017 10.768C67.2337 10.768 66.3457 11.182 65.6377 12.01ZM72.9457 10.57C74.1097 11.806 74.6917 13.438 74.6917 15.466C74.6917 17.494 74.1097 19.132 72.9457 20.38C71.7817 21.616 70.2337 22.234 68.3017 22.234C66.3697 22.234 64.8217 21.616 63.6577 20.38C62.4937 19.132 61.9117 17.494 61.9117 15.466C61.9117 13.438 62.4937 11.806 63.6577 10.57C64.8217 9.334 66.3697 8.716 68.3017 8.716C70.2337 8.716 71.7817 9.334 72.9457 10.57ZM79.0878 8.95V19.912H85.4418V22H76.5138V8.95H79.0878ZM85.6094 22L90.4694 8.95H93.0614L97.9394 22H95.1494L94.2314 19.354H89.1554L88.2374 22H85.6094ZM91.6934 12.1L89.8934 17.248H93.4934L91.6934 12.1ZM106.096 22V11.038H102.082V8.95H112.702V11.038H108.67V22H106.096ZM113.955 22V8.95H123.459V11.038H116.529V14.278H123.081V16.366H116.529V19.912H123.459V22H113.955ZM133.921 17.716H136.369C136.201 19.06 135.601 20.152 134.569 20.992C133.537 21.82 132.253 22.234 130.717 22.234C128.797 22.234 127.297 21.628 126.217 20.416C125.149 19.192 124.615 17.524 124.615 15.412C124.615 13.348 125.167 11.716 126.271 10.516C127.387 9.316 128.893 8.716 130.789 8.716C132.313 8.716 133.567 9.118 134.551 9.922C135.547 10.726 136.153 11.812 136.369 13.18H133.921C133.489 11.572 132.439 10.768 130.771 10.768C129.751 10.768 128.911 11.176 128.251 11.992C127.603 12.808 127.279 13.948 127.279 15.412C127.279 16.912 127.597 18.082 128.233 18.922C128.881 19.762 129.697 20.182 130.681 20.182C132.445 20.182 133.525 19.36 133.921 17.716ZM146.426 8.95H149V22H146.426V16.366H140.576V22H138.002V8.95H140.576V14.278H146.426V8.95Z" fill="white"/>
<path d="M24.7796 0.15C24.8716 -0.05 25.1783 -0.05 25.2703 0.15C26.3947 2.67 28.4494 4.67 31.0254 5.77C31.2298 5.86 31.2298 6.16 31.0254 6.25C28.4494 7.34 26.3947 9.35 25.2703 11.87C25.1783 12.07 24.8716 12.07 24.7796 11.87C23.6552 9.35 21.6005 7.35 19.0245 6.25C18.82 6.16 18.82 5.86 19.0245 5.77C21.6005 4.68 23.6552 2.67 24.7796 0.15Z" fill="#FDC448"/>
<path d="M30.5133 15.57C30.5133 23.82 23.6747 30.5 15.2516 30.5C6.82845 30.5 0 23.82 0 15.57C0 7.32002 6.82845 0.650024 15.2516 0.650024V5.50002C9.568 5.50002 4.95778 10.01 4.95778 15.57C4.95778 21.13 9.568 25.64 15.2516 25.64C20.9351 25.64 25.5453 21.14 25.5453 15.57H30.5133Z" fill="white"/>
</svg>
