<svg width="20" height="6" viewBox="0 0 20 6" fill="none" xmlns="http://www.w3.org/2000/svg">
<path d="M2.26145 3.84159C2.7877 3.84159 3.21431 3.38561 3.21431 2.82314C3.21431 2.26066 2.7877 1.80469 2.26145 1.80469C1.7352 1.80469 1.30859 2.26066 1.30859 2.82314C1.30859 3.38561 1.7352 3.84159 2.26145 3.84159Z" fill="white"/>
<path fill-rule="evenodd" clip-rule="evenodd" d="M2.54471 2.99453C2.59829 2.93726 2.61887 2.87245 2.61887 2.82008C2.61887 2.7677 2.59829 2.70289 2.54471 2.64562C2.48973 2.58686 2.39009 2.52909 2.26229 2.52909C2.1345 2.52909 2.03485 2.58686 1.97987 2.64562C1.92629 2.70289 1.90571 2.7677 1.90571 2.82008C1.90571 2.87245 1.92629 2.93726 1.97987 2.99453C2.03485 3.05329 2.1345 3.11106 2.26229 3.11106C2.39009 3.11106 2.48973 3.05329 2.54471 2.99453ZM0 2.82008C0 1.6179 0.932117 0.492188 2.26229 0.492188C3.59247 0.492188 4.52459 1.6179 4.52459 2.82008C4.52459 4.02225 3.59247 5.14796 2.26229 5.14796C0.932117 5.14796 0 4.02225 0 2.82008Z" fill="#FAFAFA"/>
<path d="M9.88254 3.84159C10.4088 3.84159 10.8354 3.38561 10.8354 2.82314C10.8354 2.26066 10.4088 1.80469 9.88254 1.80469C9.3563 1.80469 8.92969 2.26066 8.92969 2.82314C8.92969 3.38561 9.3563 3.84159 9.88254 3.84159Z" fill="white"/>
<path fill-rule="evenodd" clip-rule="evenodd" d="M10.1619 2.99453C10.2155 2.93726 10.2361 2.87245 10.2361 2.82008C10.2361 2.7677 10.2155 2.70289 10.1619 2.64562C10.1069 2.58686 10.0073 2.52909 9.87948 2.52909C9.75169 2.52909 9.65204 2.58686 9.59706 2.64562C9.54348 2.70289 9.5229 2.7677 9.5229 2.82008C9.5229 2.87245 9.54348 2.93726 9.59706 2.99453C9.65204 3.05329 9.75169 3.11106 9.87948 3.11106C10.0073 3.11106 10.1069 3.05329 10.1619 2.99453ZM7.61719 2.82008C7.61719 1.6179 8.5493 0.492188 9.87948 0.492188C11.2097 0.492188 12.1418 1.6179 12.1418 2.82008C12.1418 4.02225 11.2097 5.14796 9.87948 5.14796C8.5493 5.14796 7.61719 4.02225 7.61719 2.82008Z" fill="#FAFAFA"/>
<path d="M17.5075 3.84159C18.0338 3.84159 18.4604 3.38561 18.4604 2.82314C18.4604 2.26066 18.0338 1.80469 17.5075 1.80469C16.9813 1.80469 16.5547 2.26066 16.5547 2.82314C16.5547 3.38561 16.9813 3.84159 17.5075 3.84159Z" fill="white"/>
<path fill-rule="evenodd" clip-rule="evenodd" d="M17.7908 2.99453C17.8444 2.93726 17.865 2.87245 17.865 2.82008C17.865 2.7677 17.8444 2.70289 17.7908 2.64562C17.7358 2.58686 17.6362 2.52909 17.5084 2.52909C17.3806 2.52909 17.2809 2.58686 17.226 2.64562C17.1724 2.70289 17.1518 2.7677 17.1518 2.82008C17.1518 2.87245 17.1724 2.93726 17.226 2.99453C17.2809 3.05329 17.3806 3.11106 17.5084 3.11106C17.6362 3.11106 17.7358 3.05329 17.7908 2.99453ZM15.2461 2.82008C15.2461 1.6179 16.1782 0.492188 17.5084 0.492188C18.8386 0.492188 19.7707 1.6179 19.7707 2.82008C19.7707 4.02225 18.8386 5.14796 17.5084 5.14796C16.1782 5.14796 15.2461 4.02225 15.2461 2.82008Z" fill="#FAFAFA"/>
</svg>
