<svg width="182" height="72" viewBox="0 0 182 72" fill="none" xmlns="http://www.w3.org/2000/svg">
<g clip-path="url(#clip0_37818_224811)">
<rect width="182" height="72" rx="8" fill="#14142D"/>
<path fill-rule="evenodd" clip-rule="evenodd" d="M73.6544 38.0308L66.7511 51.5247H60.2677L63.1563 45.9323H63.0262C60.643 49.0262 57.087 51.0626 52.0205 51.5247V46.0098C52.0205 46.0098 55.2616 45.8182 57.1669 43.8148H52.0216V38.0308H57.8057V42.7881H57.9358L60.2996 38.0308H64.6736V42.7584H64.8037L67.2565 38.0308H73.6544Z" fill="#146EF5"/>
<path d="M111.295 50.0362H113.158V39.343H111.295V50.0362Z" fill="white"/>
<path fill-rule="evenodd" clip-rule="evenodd" d="M101.026 49.9266C101.431 50.0955 101.843 50.1788 102.262 50.1788C102.953 50.1788 103.571 50.0099 104.118 49.6734C104.663 49.3368 105.086 48.8725 105.387 48.2815C105.688 47.686 105.838 47.0095 105.838 46.2554C105.838 45.5001 105.683 44.8248 105.374 44.2292C105.065 43.6337 104.635 43.1717 104.084 42.8443C103.534 42.5123 102.907 42.348 102.207 42.3526C101.761 42.3526 101.333 42.4393 100.925 42.6115C100.515 42.7849 100.174 43.0302 99.9012 43.3485C99.8806 43.3725 99.8601 43.3976 99.8396 43.4215V39.3499H97.9697V50.0361H99.8259L99.8225 49.0379C99.8704 49.0972 99.9217 49.1543 99.9765 49.2102C100.271 49.5148 100.621 49.7532 101.026 49.9266ZM102.936 48.2005C102.631 48.3865 102.283 48.48 101.892 48.48C101.505 48.48 101.15 48.3842 100.828 48.1937C100.505 47.9975 100.248 47.7316 100.056 47.3951C99.8704 47.0585 99.7768 46.6764 99.7768 46.2485C99.7723 45.8207 99.8635 45.4385 100.049 45.102C100.24 44.7609 100.498 44.4973 100.821 44.3102C101.144 44.1197 101.501 44.0262 101.892 44.0307C102.283 44.0262 102.631 44.1174 102.936 44.3034C103.245 44.4848 103.481 44.7472 103.645 45.0883C103.814 45.4249 103.898 45.8116 103.898 46.2485C103.898 46.6855 103.813 47.0722 103.645 47.4088C103.482 47.7453 103.246 48.0089 102.936 48.2005Z" fill="white"/>
<path d="M76.3535 39.9911H78.4823L80.3864 46.9468L82.4125 39.9911H84.1866L86.3838 46.8065L88.2126 39.9911H90.1646L87.2851 50.0351H85.4495L83.2157 43.3771L81.1645 50.0351H79.3083L76.3535 39.9911Z" fill="white"/>
<path fill-rule="evenodd" clip-rule="evenodd" d="M93.3083 50.2131C92.5667 50.2176 91.8982 50.0534 91.3015 49.7214C90.7106 49.3848 90.244 48.9182 89.9029 48.3227C89.5663 47.7272 89.3975 47.0472 89.3975 46.2829C89.3975 45.5413 89.5709 44.8705 89.9165 44.2704C90.2622 43.6703 90.7311 43.2014 91.3221 42.8649C91.913 42.5283 92.5736 42.3595 93.3014 42.3595C94.1206 42.3595 94.837 42.5409 95.4508 42.9048C96.0691 43.2688 96.5312 43.7856 96.8358 44.4541C97.1449 45.1181 97.2567 45.8801 97.17 46.7403H91.3255C91.3415 47.0826 91.427 47.394 91.5822 47.6747C91.7556 47.9839 91.9963 48.2246 92.3055 48.398C92.6146 48.5714 92.9603 48.657 93.3425 48.657C93.6334 48.6524 93.9038 48.6022 94.1548 48.5064C94.4046 48.406 94.6168 48.2725 94.7891 48.1037C94.9671 47.9348 95.0914 47.7443 95.1644 47.531H97.1164C96.9978 48.0546 96.7616 48.5201 96.4068 48.9296C96.052 49.3346 95.6059 49.6506 95.0697 49.8777C94.5324 50.1058 93.9449 50.2176 93.3083 50.2131ZM91.589 44.8637C91.4795 45.0542 91.4042 45.2584 91.362 45.4774H95.2363C95.2078 45.2002 95.1222 44.9481 94.9796 44.7199C94.8153 44.4518 94.5929 44.2442 94.3111 44.0993C94.0293 43.9487 93.711 43.8745 93.3562 43.8745C92.9786 43.8745 92.6352 43.9612 92.326 44.1335C92.0157 44.3058 91.7704 44.5499 91.589 44.8637Z" fill="white"/>
<path d="M107.209 42.5158C107.209 41.9066 107.348 41.3647 107.626 40.8913C107.903 40.4133 108.292 40.0425 108.793 39.779C109.298 39.5109 109.887 39.3717 110.56 39.3625V41.0202C110.246 41.0248 109.978 41.0909 109.754 41.2176C109.536 41.3408 109.368 41.5199 109.249 41.7572C109.141 41.9751 109.081 42.2272 109.073 42.5147H110.519V44.0914H109.072V50.0352H107.209V44.0914H106.008V42.5147H107.209V42.5158Z" fill="white"/>
<path fill-rule="evenodd" clip-rule="evenodd" d="M117.894 50.1991C117.134 50.1991 116.454 50.0326 115.854 49.7006C115.259 49.3641 114.79 48.8997 114.449 48.3088C114.112 47.7132 113.943 47.0379 113.943 46.2826C113.943 45.5228 114.112 44.8452 114.449 44.2496C114.79 43.6496 115.259 43.183 115.854 42.851C116.454 42.519 117.134 42.3524 117.894 42.3524C118.658 42.3524 119.341 42.519 119.941 42.851C120.545 43.183 121.017 43.6473 121.353 44.2428C121.69 44.8383 121.861 45.5183 121.865 46.2826C121.861 47.0379 121.69 47.7132 121.353 48.3088C121.021 48.8997 120.552 49.3641 119.948 49.7006C119.343 50.0337 118.658 50.1991 117.894 50.1991ZM117.894 48.4867C118.295 48.4867 118.649 48.3955 118.959 48.2141C119.268 48.0281 119.506 47.768 119.675 47.436C119.844 47.0995 119.927 46.715 119.927 46.2826C119.927 45.8457 119.843 45.4589 119.675 45.1224C119.506 44.7858 119.268 44.5269 118.959 44.3443C118.649 44.1584 118.295 44.0648 117.894 44.0648C117.498 44.0648 117.146 44.1584 116.837 44.3443C116.532 44.5269 116.295 44.7858 116.127 45.1224C115.958 45.4589 115.877 45.8457 115.882 46.2826C115.882 46.715 115.966 47.0995 116.134 47.436C116.307 47.768 116.543 48.027 116.843 48.2141C117.148 48.3955 117.498 48.4867 117.894 48.4867Z" fill="white"/>
<path d="M123.879 42.516H121.805L124.05 50.0353H125.865L127.341 45.2323L128.935 50.0353H130.723L132.975 42.516H131.098L129.82 47.1969L128.409 42.516H126.594L125.19 47.2996L123.879 42.516Z" fill="white"/>
<path opacity="0.7" d="M149.554 21.94C149.374 21.95 149.194 21.95 149.004 21.95H147.724V25H146.704V17.75H149.004C150.774 17.75 152.024 18.1 152.024 19.84C152.024 20.99 151.474 21.54 150.584 21.78L152.264 25H151.124L149.554 21.94ZM147.724 18.61V21.09H149.084C150.144 21.09 150.974 20.98 150.974 19.86C150.974 18.74 150.144 18.61 149.084 18.61H147.724Z" fill="white"/>
<path opacity="0.7" d="M140.571 17.75H145.491V18.63H141.591V20.83H145.261V21.71H141.591V24.12H145.491V25H140.571V17.75Z" fill="white"/>
<path opacity="0.7" d="M137.362 25L134.042 18.81V25H133.022V17.75H134.522L137.832 23.92V17.75H138.852V25H137.362Z" fill="white"/>
<path opacity="0.7" d="M128.78 18.63H126.42V17.75H132.16V18.63H129.8V25H128.78V18.63Z" fill="white"/>
<path opacity="0.7" d="M123.646 21.94C123.466 21.95 123.286 21.95 123.096 21.95H121.816V25H120.796V17.75H123.096C124.866 17.75 126.116 18.1 126.116 19.84C126.116 20.99 125.566 21.54 124.676 21.78L126.356 25H125.216L123.646 21.94ZM121.816 18.61V21.09H123.176C124.236 21.09 125.066 20.98 125.066 19.86C125.066 18.74 124.236 18.61 123.176 18.61H121.816Z" fill="white"/>
<path opacity="0.7" d="M116.024 17.75H117.204L119.934 25H118.834L118.264 23.43H114.934L114.374 25H113.334L116.024 17.75ZM115.244 22.56H117.944L116.584 18.78L115.244 22.56Z" fill="white"/>
<path opacity="0.7" d="M110.81 17.75C112.58 17.75 113.82 18.15 113.82 19.94C113.82 21.74 112.58 22.13 110.81 22.13H109.56V25H108.54V17.75H110.81ZM109.56 18.61V21.24H110.89C111.95 21.24 112.78 21.13 112.78 19.94C112.78 18.76 111.95 18.61 110.89 18.61H109.56Z" fill="white"/>
<path opacity="0.7" d="M101.474 24.12H105.304V25H100.454V17.75H101.474V24.12Z" fill="white"/>
<path opacity="0.7" d="M95.6822 17.75H96.8622L99.5922 25H98.4922L97.9222 23.43H94.5922L94.0322 25H92.9922L95.6822 17.75ZM94.9022 22.56H97.6022L96.2422 18.78L94.9022 22.56Z" fill="white"/>
<path opacity="0.7" d="M90.6437 25L87.3237 18.81V25H86.3037V17.75H87.8037L91.1137 23.92V17.75H92.1337V25H90.6437Z" fill="white"/>
<path opacity="0.7" d="M81.5318 25.13C79.4418 25.13 78.1318 23.56 78.1318 21.37C78.1318 19.18 79.4418 17.62 81.5318 17.62C83.6218 17.62 84.9318 19.18 84.9318 21.37C84.9318 23.56 83.6218 25.13 81.5318 25.13ZM81.5318 24.27C82.8518 24.27 83.8918 23.24 83.8918 21.37C83.8918 19.5 82.8518 18.48 81.5318 18.48C80.2118 18.48 79.1718 19.5 79.1718 21.37C79.1718 23.24 80.2118 24.27 81.5318 24.27Z" fill="white"/>
<path opacity="0.7" d="M76.7573 25H75.7373V17.75H76.7573V25Z" fill="white"/>
<path opacity="0.7" d="M71.651 17.62C72.951 17.62 74.121 18.2 74.401 19.6H73.411C73.161 18.76 72.341 18.48 71.611 18.48C71.051 18.48 70.071 18.73 70.071 19.54C70.071 20.18 70.581 20.5 71.251 20.65L72.091 20.84C73.201 21.08 74.531 21.5 74.531 22.96C74.531 24.38 73.211 25.13 71.771 25.13C70.061 25.13 68.981 24.2 68.791 22.75H69.791C69.981 23.75 70.681 24.27 71.791 24.27C72.861 24.27 73.481 23.76 73.481 23.05C73.481 22.29 72.831 21.97 71.921 21.77L71.021 21.58C70.031 21.36 69.031 20.81 69.031 19.6C69.031 18.22 70.481 17.62 71.651 17.62Z" fill="white"/>
<path opacity="0.7" d="M65.1471 17.62C66.4471 17.62 67.6171 18.2 67.8971 19.6H66.9071C66.6571 18.76 65.8371 18.48 65.1071 18.48C64.5471 18.48 63.5671 18.73 63.5671 19.54C63.5671 20.18 64.0771 20.5 64.7471 20.65L65.5871 20.84C66.6971 21.08 68.0271 21.5 68.0271 22.96C68.0271 24.38 66.7071 25.13 65.2671 25.13C63.5571 25.13 62.4771 24.2 62.2871 22.75H63.2871C63.4771 23.75 64.1771 24.27 65.2871 24.27C66.3571 24.27 66.9771 23.76 66.9771 23.05C66.9771 22.29 66.3271 21.97 65.4171 21.77L64.5171 21.58C63.5271 21.36 62.5271 20.81 62.5271 19.6C62.5271 18.22 63.9771 17.62 65.1471 17.62Z" fill="white"/>
<path opacity="0.7" d="M56.6943 17.75H61.6143V18.63H57.7143V20.83H61.3843V21.71H57.7143V24.12H61.6143V25H56.6943V17.75Z" fill="white"/>
<path opacity="0.7" d="M51.0986 17.75H55.8086V18.63H52.1186V20.83H55.5986V21.71H52.1186V25H51.0986V17.75Z" fill="white"/>
<path opacity="0.7" d="M46.3268 25.13C44.2368 25.13 42.9268 23.56 42.9268 21.37C42.9268 19.18 44.2368 17.62 46.3268 17.62C48.4168 17.62 49.7268 19.18 49.7268 21.37C49.7268 23.56 48.4168 25.13 46.3268 25.13ZM46.3268 24.27C47.6468 24.27 48.6868 23.24 48.6868 21.37C48.6868 19.5 47.6468 18.48 46.3268 18.48C45.0068 18.48 43.9668 19.5 43.9668 21.37C43.9668 23.24 45.0068 24.27 46.3268 24.27Z" fill="white"/>
<path opacity="0.7" d="M39.4369 21.94C39.2569 21.95 39.0769 21.95 38.8869 21.95H37.6069V25H36.5869V17.75H38.8869C40.6569 17.75 41.9069 18.1 41.9069 19.84C41.9069 20.99 41.3569 21.54 40.4669 21.78L42.1469 25H41.0069L39.4369 21.94ZM37.6069 18.61V21.09H38.9669C40.0269 21.09 40.8569 20.98 40.8569 19.86C40.8569 18.74 40.0269 18.61 38.9669 18.61H37.6069Z" fill="white"/>
<path opacity="0.7" d="M32.4995 17.75C34.2695 17.75 35.5095 18.15 35.5095 19.94C35.5095 21.74 34.2695 22.13 32.4995 22.13H31.2495V25H30.2295V17.75H32.4995ZM31.2495 18.61V21.24H32.5795C33.6395 21.24 34.4695 21.13 34.4695 19.94C34.4695 18.76 33.6395 18.61 32.5795 18.61H31.2495Z" fill="white"/>
</g>
<defs>
<clipPath id="clip0_37818_224811">
<rect width="182" height="72" fill="white"/>
</clipPath>
</defs>
</svg>
