<svg width="181" height="72" viewBox="0 0 181 72" fill="none" xmlns="http://www.w3.org/2000/svg">
<rect x="0.666016" width="180" height="72" rx="8" fill="#14142D"/>
<g opacity="0.7">
<path d="M60.316 48.84L61.656 42.75H62.726L60.916 50H59.676L58.276 44.04L56.906 50H55.666L53.826 42.75H54.946L56.346 48.84L57.686 42.75H58.886L60.316 48.84ZM64.7648 50H63.7448V42.75H64.7648V50ZM70.8289 50L67.5089 43.81V50H66.4889V42.75H67.9889L71.2989 48.92V42.75H72.3189V50H70.8289ZM78.3777 50L75.0577 43.81V50H74.0377V42.75H75.5377L78.8477 48.92V42.75H79.8677V50H78.3777ZM81.5866 42.75H86.5066V43.63H82.6066V45.83H86.2766V46.71H82.6066V49.12H86.5066V50H81.5866V42.75ZM90.5694 46.94C90.3894 46.95 90.2094 46.95 90.0194 46.95H88.7394V50H87.7194V42.75H90.0194C91.7894 42.75 93.0394 43.1 93.0394 44.84C93.0394 45.99 92.4894 46.54 91.5994 46.78L93.2794 50H92.1394L90.5694 46.94ZM88.7394 43.61V46.09H90.0994C91.1594 46.09 91.9894 45.98 91.9894 44.86C91.9894 43.74 91.1594 43.61 90.0994 43.61H88.7394ZM96.8265 42.62C98.1265 42.62 99.2965 43.2 99.5765 44.6H98.5865C98.3365 43.76 97.5165 43.48 96.7865 43.48C96.2265 43.48 95.2465 43.73 95.2465 44.54C95.2465 45.18 95.7565 45.5 96.4265 45.65L97.2665 45.84C98.3765 46.08 99.7065 46.5 99.7065 47.96C99.7065 49.38 98.3865 50.13 96.9465 50.13C95.2365 50.13 94.1565 49.2 93.9665 47.75H94.9665C95.1565 48.75 95.8565 49.27 96.9665 49.27C98.0365 49.27 98.6565 48.76 98.6565 48.05C98.6565 47.29 98.0065 46.97 97.0965 46.77L96.1965 46.58C95.2065 46.36 94.2065 45.81 94.2065 44.6C94.2065 43.22 95.6565 42.62 96.8265 42.62ZM107.746 44.52C107.746 46.2 105.996 47.69 103.966 49.15H107.946V50H102.726V49.18C105.286 47.29 106.786 45.92 106.786 44.64C106.786 43.89 106.286 43.38 105.426 43.38C104.646 43.38 103.886 43.81 103.866 45.01H102.926C102.906 43.57 103.906 42.62 105.446 42.62C106.786 42.62 107.746 43.3 107.746 44.52ZM111.624 50.13C109.694 50.13 108.804 48.67 108.804 46.37C108.804 44.08 109.694 42.62 111.624 42.62C113.554 42.62 114.444 44.08 114.444 46.37C114.444 48.67 113.554 50.13 111.624 50.13ZM111.624 43.38C110.484 43.38 109.774 44.36 109.774 46.37C109.774 48.39 110.484 49.37 111.624 49.37C112.764 49.37 113.474 48.39 113.474 46.37C113.474 44.36 112.764 43.38 111.624 43.38ZM120.256 44.52C120.256 46.2 118.506 47.69 116.476 49.15H120.456V50H115.236V49.18C117.796 47.29 119.296 45.92 119.296 44.64C119.296 43.89 118.796 43.38 117.936 43.38C117.156 43.38 116.396 43.81 116.376 45.01H115.436C115.416 43.57 116.416 42.62 117.956 42.62C119.296 42.62 120.256 43.3 120.256 44.52ZM125.294 47.97C125.294 46.93 124.364 46.59 123.204 46.59H123.054V45.76H123.174C124.434 45.76 125.104 45.41 125.104 44.56C125.104 43.78 124.464 43.38 123.694 43.38C122.724 43.38 122.194 43.97 122.114 44.79H121.174C121.284 43.51 122.194 42.62 123.714 42.62C124.974 42.62 126.064 43.12 126.064 44.46C126.064 45.2 125.644 45.83 124.884 46.14C125.964 46.48 126.264 47.2 126.264 47.96C126.264 49.42 125.024 50.13 123.644 50.13C121.944 50.13 121.164 49.07 121.064 47.86H122.004C122.104 48.75 122.634 49.37 123.654 49.37C124.614 49.37 125.294 48.87 125.294 47.97ZM129.506 47.69V46.83H132.686V47.69H129.506ZM140.822 44.52C140.822 46.2 139.072 47.69 137.042 49.15H141.022V50H135.802V49.18C138.362 47.29 139.862 45.92 139.862 44.64C139.862 43.89 139.362 43.38 138.502 43.38C137.722 43.38 136.962 43.81 136.942 45.01H136.002C135.982 43.57 136.982 42.62 138.522 42.62C139.862 42.62 140.822 43.3 140.822 44.52ZM144.7 50.13C142.77 50.13 141.88 48.67 141.88 46.37C141.88 44.08 142.77 42.62 144.7 42.62C146.63 42.62 147.52 44.08 147.52 46.37C147.52 48.67 146.63 50.13 144.7 50.13ZM144.7 43.38C143.56 43.38 142.85 44.36 142.85 46.37C142.85 48.39 143.56 49.37 144.7 49.37C145.84 49.37 146.55 48.39 146.55 46.37C146.55 44.36 145.84 43.38 144.7 43.38ZM153.332 44.52C153.332 46.2 151.582 47.69 149.552 49.15H153.532V50H148.312V49.18C150.872 47.29 152.372 45.92 152.372 44.64C152.372 43.89 151.872 43.38 151.012 43.38C150.232 43.38 149.472 43.81 149.452 45.01H148.512C148.492 43.57 149.492 42.62 151.032 42.62C152.372 42.62 153.332 43.3 153.332 44.52ZM159.627 48.21H158.297V50H157.377V48.21H153.777V47.35L157.367 42.75H158.297V47.35H159.627V48.21ZM154.787 47.35H157.377V44L154.787 47.35Z" fill="white"/>
</g>
<path d="M28.6361 40.9659C28.5631 40.8929 28.5631 40.9659 28.6361 40.9659L28.2712 40.7469L28.1982 40.674L19.5856 34.5435C19.5856 34.5435 19.5126 34.5435 19.5126 34.4705L19.3666 34.3245L19.2936 34.2516H19.1476L16.666 32.5L21.5562 33.2298C21.7752 33.2298 21.8482 33.3028 22.0672 33.3758C22.1402 33.3758 22.2861 33.4488 22.2861 33.4488C22.5051 33.5217 22.5781 33.5947 22.7241 33.6677C22.87 33.7407 22.943 33.8137 23.089 33.8867C23.162 33.9596 23.308 34.0326 23.308 34.1056C23.381 34.1786 23.4539 34.1786 23.5269 34.2516C23.6729 34.3245 23.7459 34.3975 23.7459 34.4705C23.9649 34.6895 24.1108 34.9084 24.3298 35.0544L28.1982 40.528L28.2712 40.601L28.6361 40.9659Z" fill="#2AD2FF"/>
<path d="M28.6354 49.4279L28.2705 48.844L28.1975 48.771L16.7383 32.4961L19.2199 34.2477L19.6578 34.5396L28.2705 40.6701H28.3435L28.6354 40.889C28.6354 40.889 28.7084 40.889 28.7084 40.962L29.0733 40.6701L40.6785 32.4961L29.0004 48.844L28.9274 48.917L28.6354 49.4279Z" fill="url(#paint0_linear_45532_76327)"/>
<path d="M28.636 38.1865L28.2711 37.6026L28.1981 37.5296L25.3516 33.5886L28.1981 34.1725H28.2711L28.636 34.2454L29.001 34.1725L31.7746 33.5156L29.001 37.6026V37.6756L28.636 38.1865Z" fill="#2AD2FF"/>
<path d="M40.7528 32.4219L37.1034 32.9327L35.7166 33.1517C34.6218 33.2977 33.5999 33.8815 32.943 34.8303L29.0747 40.3769L29.0017 40.4499L28.6367 40.9607L29.0747 40.5229L29.1476 40.4499L28.6367 40.9607L38.4902 33.9545L40.7528 32.4219Z" fill="#2AD2FF"/>
<path d="M30.4615 20.8937C30.4615 24.1049 24.9143 25.7835 24.9143 29.2136C24.8414 30.0164 25.0603 30.8192 25.4253 31.549C25.4253 31.549 23.3086 29.5055 23.3086 27.3161C23.3086 25.1266 25.3523 21.8425 25.3523 21.8425C25.3523 23.3021 25.9362 23.74 26.5201 23.813H26.5931C27.25 23.813 27.6149 23.3021 27.6149 22.5723C27.6149 21.8425 26.812 21.1126 26.812 19.653C26.812 18.2663 28.5638 16.0039 28.5638 16.0039C29.8046 17.4635 30.4615 19.1421 30.4615 20.8937Z" fill="#2AF4FF"/>
<path d="M28.9249 32.5734C27.1732 32.5734 25.8594 31.1868 25.8594 29.5082V29.4352C25.8594 25.7132 31.0416 25.3482 31.0416 20.3125C31.1875 20.5314 32.5743 22.429 32.5743 24.4725C32.5743 27.0268 30.1657 27.6837 30.1657 28.9244C30.1657 29.4352 30.3847 29.8001 31.1145 29.8001C31.1875 29.8001 31.2605 29.8001 31.3335 29.7272C32.7203 29.1433 33.6691 27.8296 33.7421 26.297C33.7421 26.37 34.472 32.5734 28.9249 32.5734Z" fill="#2AF4FF"/>
<path d="M31.19 29.8001C31.263 29.8001 31.336 29.8001 31.409 29.7272C30.6791 29.9461 27.9785 30.6029 27.9785 28.7054C27.9785 26.37 31.9929 25.8591 31.9929 23.8886C31.9929 22.6479 31.7009 21.4072 31.044 20.3125C31.19 20.5314 32.5768 22.429 32.5768 24.4725C32.5768 27.0268 30.1682 27.6837 30.1682 28.9244C30.2412 29.4352 30.5331 29.8001 31.19 29.8001Z" fill="#2AD2FF"/>
<path d="M28.9992 22.2074C28.9992 24.0319 26.6636 23.8859 26.5176 23.813H26.7365C27.3934 23.813 27.7584 23.3021 27.7584 22.5723C27.7584 21.8425 26.9555 21.1126 26.9555 19.653C26.9555 18.2663 28.7072 16.0039 28.7072 16.0039C28.1233 16.9527 27.8314 17.9744 27.7584 18.9962C27.7584 20.6747 28.9992 20.8207 28.9992 22.2074Z" fill="#2AD2FF"/>
<path d="M27.5413 54.1082L25.9355 53.0135H27.9062L28.5631 51.043L29.147 53.0135H31.1177L29.512 54.1082L30.0959 56.0057L28.4901 54.838L26.8114 56.0057L27.5413 54.1082Z" fill="#2AD2FF"/>
<path d="M35.9319 54.1082L34.3262 53.0135H36.2969L36.9538 51.043L37.5377 53.0135H39.5084L37.9026 54.1082L38.4865 56.0057L36.8808 54.838L35.202 56.0057L35.9319 54.1082Z" fill="#2AD2FF"/>
<path d="M19.219 54.1082L17.6133 53.0135H19.584L20.2409 51.043L20.8248 53.0135H22.7955L21.1897 54.1082L21.7736 56.0057L20.1679 54.838L18.5621 56.0057L19.219 54.1082Z" fill="#2AD2FF"/>
<path d="M53.666 22.1875H57.48C60.5497 22.1875 62.6893 24.2805 62.6893 26.9782V27.0247C62.6893 29.7224 60.5963 31.8154 57.48 31.8154H53.666V22.1875ZM57.48 29.8619C59.2474 29.8619 60.4102 28.6991 60.4102 27.0247V26.9782C60.4102 25.3038 59.2474 24.0945 57.48 24.0945H55.8521V29.8619H57.48Z" fill="white"/>
<path d="M64.5508 22.1875H71.9461V24.048H66.7368V26.0015H71.3415V27.8619H66.7368V29.8619H72.0392V31.7224H64.5973L64.5508 22.1875Z" fill="white"/>
<path d="M73.2461 30.3725L74.5484 28.8841C75.4321 29.5818 76.3624 30.0469 77.4787 30.0469C78.3624 30.0469 78.874 29.6748 78.874 29.1632V29.1166C78.874 28.5585 78.5019 28.2794 76.9205 27.9073C74.967 27.3957 73.6647 26.8841 73.6647 24.9771V24.9306C73.6647 23.2097 75.06 22.0469 77.1066 22.0469C78.5019 22.0469 79.7577 22.4655 80.7345 23.2562L79.6182 24.8841C78.781 24.2794 77.8973 23.9539 77.0601 23.9539C76.2228 23.9539 75.8042 24.3259 75.8042 24.7911V24.7445C75.8042 25.3492 76.2228 25.5818 77.8973 26.0004C79.8973 26.512 80.967 27.2097 80.967 28.8376V28.8841C80.967 30.7911 79.4787 31.8608 77.3856 31.8608C75.8973 31.8608 74.4089 31.3492 73.2461 30.3725Z" fill="white"/>
<path d="M82.9199 22.1875H85.0595V31.7689H82.9199V22.1875Z" fill="white"/>
<path d="M87.1094 26.9767C87.1094 24.2326 89.2489 22 92.2257 22C93.9931 22 95.0164 22.4651 96.0396 23.3488L94.6908 24.9767C93.9466 24.3721 93.2954 24 92.1326 24C90.5512 24 89.3419 25.3488 89.3419 26.9767V27.0233C89.3419 28.7907 90.5512 30.093 92.3187 30.093C93.1094 30.093 93.8071 29.907 94.3652 29.4884V28.1395H92.1792V26.3256H96.4117V30.4651C95.3885 31.3023 94.0396 32 92.2257 32C89.1559 31.8605 87.1094 29.814 87.1094 26.9767Z" fill="white"/>
<path d="M98.4551 22.1875H100.455L105.013 28.048V22.1875H107.106V31.7689H105.292L100.548 25.6759V31.7689H98.4551V22.1875Z" fill="white"/>
<path d="M109.478 22.1836H113.943C115.199 22.1836 116.129 22.5557 116.78 23.1603C117.338 23.7185 117.617 24.4627 117.617 25.3464V25.3929C117.617 26.9278 116.78 27.9045 115.524 28.3696L117.896 31.765H115.385L113.292 28.6952H113.245H111.571V31.765H109.385V22.1836H109.478ZM113.803 26.7882C114.873 26.7882 115.431 26.2301 115.431 25.4394V25.3929C115.431 24.5092 114.827 24.0441 113.757 24.0441H111.617V26.7882H113.803Z" fill="url(#paint1_linear_45532_76327)"/>
<path d="M119.43 27.6247V22.1364H121.569V27.5317C121.569 29.1131 122.36 29.8573 123.662 29.8573C124.965 29.8573 125.755 29.0666 125.755 27.5317V22.0898H127.895V27.4852C127.895 30.3689 126.22 31.8108 123.616 31.8108C121.011 31.8108 119.43 30.4154 119.43 27.6247Z" fill="url(#paint2_linear_45532_76327)"/>
<path d="M129.434 30.3725L130.736 28.8841C131.62 29.5818 132.55 30.0469 133.666 30.0469C134.55 30.0469 135.062 29.6748 135.062 29.1632V29.1166C135.062 28.5585 134.689 28.2794 133.108 27.9073C131.155 27.3957 129.852 26.8841 129.852 24.9771V24.9306C129.852 23.2097 131.248 22.0469 133.294 22.0469C134.689 22.0469 135.945 22.4655 136.922 23.2562L135.806 24.8841C134.968 24.2794 134.085 23.9539 133.248 23.9539C132.41 23.9539 131.992 24.3259 131.992 24.7911V24.7445C131.992 25.3492 132.41 25.5818 134.085 26.0004C136.085 26.512 137.155 27.2097 137.155 28.8376V28.8841C137.155 30.7911 135.666 31.8608 133.573 31.8608C132.131 31.8608 130.596 31.3492 129.434 30.3725Z" fill="url(#paint3_linear_45532_76327)"/>
<path d="M139.012 22.1836H141.151V25.9975H145.105V22.1836H147.244V31.765H145.105V27.951H141.151V31.765H139.012V22.1836Z" fill="url(#paint4_linear_45532_76327)"/>
<defs>
<linearGradient id="paint0_linear_45532_76327" x1="16.6653" y1="49.4585" x2="16.6653" y2="40.5007" gradientUnits="userSpaceOnUse">
<stop offset="0.73" stop-color="#2AF4FF"/>
<stop offset="0.884" stop-color="#2AF4FF"/>
</linearGradient>
<linearGradient id="paint1_linear_45532_76327" x1="108.482" y1="11.6255" x2="147.645" y2="11.6255" gradientUnits="userSpaceOnUse">
<stop offset="0.73" stop-color="#2AF4FF"/>
<stop offset="0.884" stop-color="#2AF4FF"/>
</linearGradient>
<linearGradient id="paint2_linear_45532_76327" x1="108.481" y1="11.6247" x2="147.644" y2="11.6247" gradientUnits="userSpaceOnUse">
<stop offset="0.73" stop-color="#2AF4FF"/>
<stop offset="0.884" stop-color="#2AF4FF"/>
</linearGradient>
<linearGradient id="paint3_linear_45532_76327" x1="108.485" y1="11.6283" x2="147.648" y2="11.6283" gradientUnits="userSpaceOnUse">
<stop offset="0.73" stop-color="#2AF4FF"/>
<stop offset="0.884" stop-color="#2AF4FF"/>
</linearGradient>
<linearGradient id="paint4_linear_45532_76327" x1="108.481" y1="11.6255" x2="147.644" y2="11.6255" gradientUnits="userSpaceOnUse">
<stop offset="0.73" stop-color="#2AF4FF"/>
<stop offset="0.884" stop-color="#2AF4FF"/>
</linearGradient>
</defs>
</svg>
