
<svg width="300" height="300" viewBox="0 0 300 300" fill="none" xmlns="http://www.w3.org/2000/svg">
<g clip-path="url(#clip0_46304_67859)">
<path fill-rule="evenodd" clip-rule="evenodd" d="M257.595 208.195C251.851 199.212 249.272 194.058 248.633 189.519C248.204 186.476 248.772 183.848 250.831 180.893C252.747 178.144 256.006 175.038 260.898 170.819L260.906 170.812C267.781 164.932 270.931 161.47 271.997 158.292C272.977 155.37 272.323 152.196 269.483 146.211L269.48 146.204L269.477 146.197C268.601 144.322 267.801 142.485 267.214 141.034C266.921 140.311 266.673 139.661 266.493 139.139C266.404 138.88 266.323 138.625 266.26 138.393L266.259 138.39C266.218 138.237 266.11 137.835 266.11 137.402C266.11 135.845 266.763 134.077 267.594 132.44C268.465 130.723 269.697 128.834 271.19 126.951C273.124 124.481 274.279 122.64 274.972 120.917C275.648 119.238 275.935 117.541 275.935 115.295L275.935 115.121L275.935 114.968C275.932 113.198 275.93 111.62 276.654 110.07C277.031 109.261 277.554 108.549 278.158 107.835C278.745 107.14 279.509 106.328 280.438 105.34L280.482 105.293C283.834 101.724 285.406 99.7248 286.128 98.0227C286.764 96.5222 286.814 95.0646 286.293 92.227L286.292 92.2226C286.088 91.0958 285.953 89.8649 285.902 88.7846C285.858 87.8576 285.854 86.6948 286.079 85.8314C286.243 85.1417 286.632 84.4874 286.888 84.0792C287.222 83.5462 287.651 82.947 288.125 82.3274C289.077 81.0825 290.307 79.6301 291.569 78.2418L291.584 78.2259L291.599 78.2101C295.072 74.5202 296.664 72.3413 297.217 70.7665C297.458 70.0782 297.476 69.5652 297.378 69.086C297.27 68.5615 296.99 67.9128 296.387 67.0198C295.522 65.7556 293.83 62.9297 292.582 60.6227C291.165 58.1091 289.728 56.2538 288.404 55.0582C287.048 53.8326 286.041 53.5 285.436 53.5C283.543 53.5 282.087 54.1432 280.647 55.976C279.07 57.9827 277.564 61.3692 275.985 66.804L275.985 66.8054C275.234 69.3848 274.431 71.3583 272.719 73.3377C271.113 75.1949 268.788 76.9556 265.32 79.3894C263.467 80.6917 262.273 81.7335 261.182 83.0972C260.059 84.5006 258.971 86.3382 257.455 89.3408L257.453 89.3439C256.252 91.7129 255.115 93.5148 253.294 95.2354C251.54 96.892 249.248 98.3799 245.931 100.315C244.539 101.145 243.12 102.062 241.954 102.875C240.713 103.742 239.958 104.356 239.733 104.596C238.774 105.625 236.89 107.314 235.462 108.339C234.348 109.189 233.31 109.872 231.871 110.24C230.556 110.577 229.042 110.61 227.098 110.61C224.313 110.61 223.058 110.736 222.054 111.107C221.069 111.472 220.105 112.154 218.137 113.907L218.129 113.915L218.12 113.922C216.64 115.217 215.406 116.194 214.083 116.771L213.01 114.511C213.085 114.48 213.16 114.446 213.236 114.41C214.119 113.992 215.092 113.249 216.474 112.04C220.404 108.54 221.571 108.11 227.098 108.11C231.089 108.11 231.888 107.926 233.976 106.329C235.265 105.408 237.046 103.812 237.906 102.89C238.765 101.969 241.774 99.8814 244.661 98.1619C251.293 94.2932 252.951 92.6965 255.223 88.2137C258.293 82.1342 259.951 80.1077 263.882 77.3444C270.882 72.4317 272.172 70.9578 273.584 66.1066C276.777 55.1144 280.032 51 285.436 51C288.384 51 291.761 54.0704 294.77 59.413C295.998 61.6851 297.656 64.4485 298.455 65.6153C301.28 69.7911 300.297 72.6159 293.419 79.9235C290.963 82.6255 288.691 85.5117 288.507 86.4329C288.261 87.2926 288.384 89.7489 288.752 91.7754C289.858 97.7935 288.936 99.9428 282.304 107.005C280.114 109.334 279.164 110.345 278.752 111.541C278.435 112.457 278.435 113.483 278.435 115.295C278.435 120.269 277.146 123.401 273.154 128.498C270.33 132.06 268.61 135.498 268.61 137.402C268.61 137.955 270.022 141.455 271.742 145.14C277.453 157.176 276.102 161.106 262.531 172.712C252.705 181.187 250.433 184.38 251.109 189.17C251.661 193.1 253.933 197.828 259.706 206.855C269.163 221.839 271.128 231.235 265.54 235.226C263.329 236.761 260.258 236.761 257.741 235.226C256.635 234.551 253.749 231.358 251.354 228.041C250.576 226.979 249.843 225.975 249.15 225.026C241.351 214.349 238.622 210.613 234.989 209.202C233.033 208.443 230.815 208.358 227.402 208.227C226.771 208.203 226.098 208.177 225.378 208.145C218.501 207.838 215.062 207.408 212.114 206.426C209.903 205.75 207.508 205.136 206.833 205.136C204.806 205.136 202.657 207.162 199.894 211.83C195.349 219.506 191.911 221.102 180.243 221.102C176.313 221.102 172.076 221.409 170.786 221.778C165.689 223.19 162.189 228.103 159.917 237.13C158.566 242.657 156.908 245.604 154.39 247.14C151.995 248.552 148.249 248.859 146.038 247.876C142.722 246.403 138.608 240.876 134.309 232.217C130.195 223.804 127.37 219.874 125.589 219.874L127.103 217.679C127.761 217.945 128.318 218.348 128.757 218.727C129.553 219.413 130.336 220.349 131.113 221.444C132.673 223.644 134.477 226.871 136.551 231.112C138.659 235.357 140.685 238.758 142.544 241.244C144.456 243.801 145.997 245.122 147.054 245.592C147.652 245.858 148.683 246.023 149.93 245.915C151.148 245.81 152.296 245.468 153.104 244.996C154.724 244 156.175 241.907 157.488 236.536L157.49 236.528L157.492 236.52C159.816 227.287 163.65 221.165 170.11 219.371C171.044 219.106 172.674 218.928 174.345 218.808C176.117 218.681 178.219 218.602 180.243 218.602C186.069 218.602 189.34 218.182 191.675 217.083C193.881 216.044 195.558 214.247 197.742 210.556C199.168 208.148 200.532 206.25 201.909 204.929C203.288 203.606 204.921 202.636 206.833 202.636C207.264 202.636 207.749 202.719 208.104 202.788C208.517 202.867 208.996 202.976 209.499 203.101C210.51 203.352 211.706 203.687 212.845 204.035L212.875 204.044L212.905 204.054C215.491 204.916 218.621 205.341 225.49 205.648C226.195 205.679 226.87 205.703 227.518 205.726C232.235 205.892 235.529 206.009 238.893 208.576C240.692 209.949 242.465 211.963 244.649 214.771C246.397 217.018 248.505 219.904 251.182 223.569C251.873 224.515 252.601 225.513 253.371 226.565L253.376 226.571L253.381 226.578C254.527 228.165 255.793 229.725 256.895 230.958C257.447 231.575 257.941 232.093 258.347 232.484C258.55 232.679 258.718 232.831 258.851 232.942C258.971 233.042 259.032 233.085 259.043 233.092C259.046 233.094 259.044 233.093 259.044 233.093C260.814 234.171 262.798 234.078 264.101 233.182C265.758 231.99 266.684 229.868 265.816 225.669C264.934 221.396 262.274 215.609 257.595 208.195Z" fill="white"/>
<path d="M120.431 220.857C122.703 220.304 125.036 219.874 125.589 219.874L127.103 217.679C126.645 217.494 126.139 217.374 125.589 217.374C125.03 217.374 124.056 217.538 123.192 217.701C122.212 217.886 121.018 218.141 119.84 218.427L119.832 218.429L119.824 218.431C118.113 218.859 117.172 219.032 116.467 219.066C115.858 219.094 115.354 219.022 114.53 218.773C113.36 218.41 111.835 217.468 110.046 215.757C108.279 214.068 106.383 211.751 104.46 208.851C102.413 205.766 100.468 203.291 98.5721 201.489C96.6929 199.703 94.687 198.41 92.5115 198.01L92.4913 198.006L92.4709 198.003C91.3546 197.817 90.0098 197.89 88.5169 198.101C86.9838 198.318 85.1096 198.708 82.8564 199.272L82.853 199.273C77.698 200.569 74.3502 200.943 71.3815 200.472C68.4365 200.004 65.5884 198.658 61.5248 195.94C58.068 193.594 55.6193 192.065 52.9508 190.86C50.2869 189.657 47.493 188.816 43.3982 187.738C41.1805 187.13 38.9865 186.495 37.2413 185.953C36.3659 185.681 35.6178 185.438 35.0426 185.236C34.7546 185.136 34.5231 185.05 34.3475 184.98C34.1908 184.918 34.118 184.884 34.1021 184.877C34.0984 184.875 34.0977 184.875 34.0998 184.876L34.0876 184.869L34.0753 184.863C33.9359 184.791 33.5025 184.497 32.7239 183.856C31.9986 183.259 31.1027 182.47 30.0863 181.536C28.0564 179.67 25.6116 177.286 23.2061 174.842C20.8005 172.399 18.4553 169.917 16.6219 167.855C15.7039 166.823 14.9297 165.914 14.3457 165.178C13.7181 164.387 13.4354 163.95 13.3677 163.812L13.3544 163.785L13.3405 163.758C12.0435 161.268 11.0378 156.771 9.48367 145.891C9.02162 142.657 7.61314 137.378 5.90666 132.89L5.90327 132.882C4.40317 128.981 2.99069 124.372 2.64542 122.794C1.98082 119.036 2.84062 113.117 5.73516 105.157L5.74033 105.143L5.74533 105.129C7.02817 101.463 9.23207 95.4027 10.6376 91.6749L10.647 91.65L10.6559 91.6249C12.5559 86.2415 13.4589 82.5027 14.1574 76.7879L14.1591 76.7743L14.1606 76.7607C14.6455 72.396 15.225 69.1675 15.8798 66.9214C16.2068 65.7998 16.5325 64.9944 16.8334 64.442C17.133 63.8919 17.3386 63.721 17.3736 63.6956C17.401 63.6775 17.4258 63.6614 17.4483 63.6473C18.0498 63.9467 19.111 64.7539 21.409 66.7147C22.3329 67.511 23.2405 68.2414 23.9768 68.7853C24.3408 69.0541 24.6966 69.3024 25.0093 69.4945C25.1619 69.5883 25.3485 69.6962 25.547 69.7891L25.5586 69.7945C25.6668 69.8459 26.1607 70.0804 26.7824 70.0804C28.1334 70.0804 28.847 69.1222 29.0208 68.8702C29.2793 68.4953 29.4247 68.1079 29.5096 67.832C29.686 67.2587 29.7709 66.6018 29.7736 65.9549C29.7985 65.0226 30.173 63.7392 30.8385 62.5287C31.5337 61.264 32.2977 60.5251 32.7517 60.2981L32.7825 60.2827L32.8128 60.2665C33.4461 59.9277 34.271 59.6916 36.3883 60.127C38.616 60.585 41.8833 61.7043 47.1838 63.769L47.1959 63.7737C51.7288 65.5123 58.2815 67.6397 61.9451 68.4777C70.5638 70.5989 87.9762 73.4971 99.6442 74.7936L99.6481 74.794C108.21 75.7314 110.525 75.7973 119.05 75.0451C132.061 73.9326 138.405 73.4191 143.061 73.6468C147.553 73.8664 150.435 74.7723 156.63 76.7754C160.113 77.906 162.379 78.6018 164.635 79.0196C166.913 79.4414 169.106 79.5667 172.435 79.6592C174.648 79.721 176.225 79.7848 177.444 79.9296C178.651 80.0729 179.317 80.2773 179.767 80.5151C180.563 80.9349 181.185 81.686 182.598 84.3135C182.726 84.5516 182.861 84.8051 183.002 85.0751C184.331 87.6116 185.59 89.7359 187.886 90.9305C190.034 92.048 192.763 92.1579 196.249 92.1874L196.26 92.1875H196.271C197.949 92.1875 199.199 92.244 200.144 92.3498C200.893 92.4335 201.45 92.5481 201.878 92.69C202.561 92.9165 202.849 93.1771 203.136 93.7198C203.141 93.7523 203.201 93.9624 203.287 94.4627C203.386 95.0433 203.491 95.8222 203.596 96.7646C203.804 98.6405 204 101.062 204.152 103.638C204.188 104.373 204.222 105.091 204.255 105.78L204.283 106.386L204.287 106.459L204.287 106.472L204.288 106.481L204.289 106.498C204.355 107.898 204.415 109.159 204.466 110.185C204.509 111.03 204.546 111.73 204.577 112.226C204.592 112.47 204.607 112.684 204.621 112.847C204.627 112.924 204.637 113.021 204.65 113.116C204.655 113.157 204.668 113.248 204.692 113.355C204.702 113.404 204.727 113.514 204.773 113.648C204.775 113.652 204.826 113.823 204.955 114.053C205.596 115.207 206.692 116.008 207.68 116.502C208.708 117.017 209.948 117.365 211.193 117.365C212.192 117.365 213.067 117.186 213.902 116.847C213.963 116.822 214.023 116.797 214.083 116.771L213.01 114.511C212.409 114.763 211.838 114.865 211.193 114.865C209.596 114.865 207.754 113.944 207.14 112.839C207.09 112.789 206.962 110.075 206.785 106.361C206.742 105.46 206.697 104.5 206.649 103.504C206.593 102.554 206.531 101.622 206.464 100.728C206.165 96.7096 205.772 93.45 205.42 92.6965C204.254 90.363 202.289 89.6875 196.271 89.6875C195.536 89.6813 194.865 89.67 194.249 89.6494C189.765 89.4996 188.194 88.856 186.433 86.0698C186.047 85.46 185.653 84.7475 185.217 83.9151C181.962 77.7128 181.287 77.4058 172.505 77.1601C165.873 76.9759 164.399 76.6689 157.399 74.3967C145.056 70.4052 144.687 70.3438 118.834 72.5545C110.483 73.2914 108.333 73.23 99.9202 72.3088C88.314 71.0193 70.9967 68.133 62.5223 66.0451C59.022 65.2468 52.5741 63.1589 48.0913 61.4395C37.5289 57.3251 34.2743 56.6496 31.6337 58.062C29.6392 59.0592 27.7447 62.3057 27.3481 65.0507C27.3435 65.0827 27.3391 65.1146 27.3348 65.1465C27.2999 65.4109 27.279 65.6704 27.2737 65.9223C27.2737 66.8435 27.028 67.5804 26.7824 67.5804C26.5807 67.5804 25.7958 67.0502 24.7761 66.2512L24.7541 66.234C24.2274 65.8206 23.6389 65.3363 23.0365 64.817C18.4308 60.8868 17.6325 60.5184 15.9745 61.6237C14.0708 62.9133 12.6584 67.6418 11.6759 76.4846C11.0004 82.0114 10.1406 85.5731 8.29838 90.7929C6.88598 94.5388 4.67526 100.618 3.38568 104.303C0.43806 112.409 -0.605889 118.857 0.192424 123.278C0.560877 124.998 2.03469 129.787 3.56991 133.779C5.22794 138.139 6.57893 143.236 7.0088 146.245C8.54401 156.992 9.58796 161.966 11.1232 164.913C12.7198 168.168 29.73 185.424 32.9233 187.082C33.8444 187.573 38.2659 188.924 42.7487 190.152C50.9161 192.302 53.2496 193.346 60.1274 198.013C68.479 203.601 72.9618 204.338 83.4627 201.697C87.8841 200.592 90.5861 200.223 92.0599 200.469C95.0689 201.022 98.385 204.215 102.377 210.233C106.368 216.251 110.421 220.12 113.799 221.164C115.825 221.778 116.992 221.716 120.431 220.857Z" fill="white"/>
<path d="M278 149C278 152.314 275.314 155 272 155C268.686 155 266 152.314 266 149C266 145.686 268.686 143 272 143C275.314 143 278 145.686 278 149Z" fill="#3827C7"/>
<path fill-rule="evenodd" clip-rule="evenodd" d="M280.5 149C280.5 153.694 276.694 157.5 272 157.5C267.306 157.5 263.5 153.694 263.5 149C263.5 144.306 267.306 140.5 272 140.5C276.694 140.5 280.5 144.306 280.5 149ZM272 155C275.314 155 278 152.314 278 149C278 145.686 275.314 143 272 143C268.686 143 266 145.686 266 149C266 152.314 268.686 155 272 155Z" fill="white"/>
<path d="M248.869 143.852V149.494L251.655 146.47H253.657L250.773 149.564L253.979 154.002H252.033L249.667 150.74L248.869 151.594V154.002H247.203V143.852H248.869Z" fill="white"/>
<path d="M246.151 148.165C245.871 148.137 245.605 148.123 245.353 148.123C244.793 148.123 244.378 148.268 244.107 148.557C243.836 148.837 243.701 149.336 243.701 150.055V154.003H242.035V146.471H243.673V147.815C244.102 146.928 244.784 146.476 245.717 146.457C245.838 146.457 245.983 146.466 246.151 146.485V148.165Z" fill="white"/>
<path d="M239.56 147.323C240.297 148.004 240.666 148.979 240.666 150.249C240.666 151.518 240.297 152.493 239.56 153.175C238.832 153.847 237.964 154.183 236.956 154.183C235.948 154.183 235.075 153.847 234.338 153.175C233.61 152.493 233.246 151.518 233.246 150.249C233.246 148.979 233.61 148.004 234.338 147.323C235.075 146.641 235.948 146.301 236.956 146.301C237.964 146.301 238.832 146.641 239.56 147.323ZM235.542 152.153C235.925 152.601 236.396 152.825 236.956 152.825C237.516 152.825 237.987 152.601 238.37 152.153C238.753 151.705 238.944 151.07 238.944 150.249C238.944 149.418 238.753 148.779 238.37 148.331C237.987 147.883 237.516 147.659 236.956 147.659C236.396 147.659 235.925 147.883 235.542 148.331C235.159 148.779 234.968 149.418 234.968 150.249C234.968 151.07 235.159 151.705 235.542 152.153Z" fill="white"/>
<path d="M227.034 143.852L229.554 148.388L232.144 143.852H234.146L230.408 150.082V154.002H228.63V150.054L225.004 143.852H227.034Z" fill="white"/>
<path d="M215.837 146.469H217.559L218.861 151.817L219.967 146.469H221.773L219.771 154.001H218.189L216.705 148.429L215.221 154.001H213.639L211.637 146.469H213.443L214.549 151.817L215.837 146.469Z" fill="white"/>
<path d="M205.573 150.711C205.629 151.373 205.853 151.887 206.245 152.251C206.646 152.615 207.104 152.797 207.617 152.797C208.55 152.797 209.166 152.447 209.465 151.747H211.103C210.907 152.419 210.515 152.993 209.927 153.469C209.339 153.945 208.592 154.183 207.687 154.183C206.52 154.183 205.592 153.8 204.901 153.035C204.22 152.26 203.879 151.308 203.879 150.179C203.879 149.049 204.224 148.121 204.915 147.393C205.615 146.665 206.502 146.301 207.575 146.301C208.723 146.301 209.628 146.716 210.291 147.547C210.963 148.377 211.262 149.432 211.187 150.711H205.573ZM205.573 149.493H209.493C209.474 148.923 209.278 148.466 208.905 148.121C208.532 147.775 208.088 147.603 207.575 147.603C207.108 147.603 206.674 147.757 206.273 148.065C205.872 148.363 205.638 148.839 205.573 149.493Z" fill="white"/>
<path d="M200.041 154.002L195.743 145.896V154.002H194.021V143.852H196.401L200.699 151.958V143.852H202.421V154.002H200.041Z" fill="white"/>
</g>
<defs>
<clipPath id="clip0_46304_67859">
<rect width="300" height="300" fill="white"/>
</clipPath>
</defs>
</svg>
