<svg width="172" height="35" viewBox="0 0 172 35" fill="none" xmlns="http://www.w3.org/2000/svg">
<path d="M34.9493 17.4746C34.9493 7.82367 27.1256 0 17.4746 0C7.82367 0 0 7.82367 0 17.4746C0 27.1256 7.82367 34.9493 17.4746 34.9493C27.1256 34.9493 34.9493 27.1256 34.9493 17.4746Z" fill="#02021E"/>
<mask id="mask0_20_3" style="mask-type:luminance" maskUnits="userSpaceOnUse" x="7" y="6" width="21" height="22">
<path d="M27.8715 6.72656H7.19141V27.4067H27.8715V6.72656Z" fill="white"/>
</mask>
<g mask="url(#mask0_20_3)">
<path d="M23.63 6.82046C23.691 6.68485 23.8944 6.68485 23.9554 6.82046C24.7013 8.52911 26.0641 9.88518 27.7728 10.631C27.9084 10.692 27.9084 10.8955 27.7728 10.9565C26.0641 11.6955 24.7013 13.0584 23.9554 14.767C23.8944 14.9027 23.691 14.9027 23.63 14.767C22.8841 13.0584 21.5213 11.7023 19.8126 10.9565C19.677 10.8955 19.677 10.692 19.8126 10.631C21.5213 9.89196 22.8841 8.52911 23.63 6.82046Z" fill="#FDC448"/>
<path d="M27.4308 17.2726C27.4308 22.8664 22.8947 27.3956 17.3077 27.3956C11.7207 27.3956 7.19141 22.8664 7.19141 17.2726C7.19141 11.6788 11.7207 7.15625 17.3077 7.15625V10.4447C13.5378 10.4447 10.4799 13.5027 10.4799 17.2726C10.4799 21.0424 13.5378 24.1004 17.3077 24.1004C21.0776 24.1004 24.1355 21.0492 24.1355 17.2726H27.4308Z" fill="white"/>
</g>
<path opacity="0.4" d="M165 22V11H166.64V15.2923H166.769C166.97 14.8704 167.268 14.5405 167.661 14.3029C168.055 14.0652 168.551 13.9464 169.15 13.9464C169.759 13.9464 170.277 14.0604 170.7 14.2884C171.123 14.5163 171.445 14.851 171.667 15.2923C171.889 15.7289 172 16.2599 172 16.8856V22H170.352V17.2566C170.352 16.597 170.208 16.1072 169.921 15.787C169.639 15.4621 169.196 15.2996 168.591 15.2996C168.192 15.2996 167.847 15.3845 167.555 15.5543C167.263 15.7191 167.036 15.9568 166.875 16.2672C166.719 16.5727 166.64 16.9389 166.64 17.3657V22H165Z" fill="#FAFAFA" fill-opacity="0.75"/>
<path opacity="0.4" d="M161.137 22V12.7609H161.006L158 14.7352V13.0582L161.145 11H163V22H161.137Z" fill="#FAFAFA" fill-opacity="0.75"/>
<path d="M42.9055 22V13.8182H45.1747V22H42.9055ZM44.0455 12.7635C43.7081 12.7635 43.4187 12.6516 43.1772 12.4279C42.9393 12.2006 42.8203 11.929 42.8203 11.6129C42.8203 11.3004 42.9393 11.0323 43.1772 10.8086C43.4187 10.5813 43.7081 10.4677 44.0455 10.4677C44.3828 10.4677 44.6705 10.5813 44.9084 10.8086C45.1499 11.0323 45.2706 11.3004 45.2706 11.6129C45.2706 11.929 45.1499 12.2006 44.9084 12.4279C44.6705 12.6516 44.3828 12.7635 44.0455 12.7635ZM49.4116 17.2699V22H47.1425V13.8182H49.3051V15.2617H49.401C49.5821 14.7859 49.8857 14.4094 50.3118 14.1325C50.738 13.8519 51.2547 13.7116 51.8619 13.7116C52.4301 13.7116 52.9255 13.8359 53.3481 14.0845C53.7707 14.3331 54.0991 14.6882 54.3335 15.1499C54.5679 15.608 54.6851 16.1548 54.6851 16.7905V22H52.4159V17.1953C52.4194 16.6946 52.2916 16.304 52.0324 16.0234C51.7731 15.7393 51.4162 15.5973 50.9617 15.5973C50.6563 15.5973 50.3864 15.663 50.152 15.7944C49.9212 15.9258 49.7401 16.1175 49.6087 16.3697C49.4809 16.6183 49.4152 16.9183 49.4116 17.2699ZM60.3202 22.1598C59.4928 22.1598 58.7773 21.984 58.1736 21.6325C57.5734 21.2773 57.11 20.7837 56.7833 20.1516C56.4566 19.516 56.2933 18.7791 56.2933 17.9411C56.2933 17.0959 56.4566 16.3572 56.7833 15.7251C57.11 15.0895 57.5734 14.5959 58.1736 14.2443C58.7773 13.8892 59.4928 13.7116 60.3202 13.7116C61.1477 13.7116 61.8614 13.8892 62.4616 14.2443C63.0653 14.5959 63.5305 15.0895 63.8572 15.7251C64.1839 16.3572 64.3472 17.0959 64.3472 17.9411C64.3472 18.7791 64.1839 19.516 63.8572 20.1516C63.5305 20.7837 63.0653 21.2773 62.4616 21.6325C61.8614 21.984 61.1477 22.1598 60.3202 22.1598ZM60.3309 20.402C60.7073 20.402 61.0216 20.2955 61.2737 20.0824C61.5259 19.8658 61.7158 19.571 61.8437 19.1982C61.9751 18.8253 62.0408 18.4009 62.0408 17.9251C62.0408 17.4492 61.9751 17.0249 61.8437 16.652C61.7158 16.2791 61.5259 15.9844 61.2737 15.7678C61.0216 15.5511 60.7073 15.4428 60.3309 15.4428C59.9509 15.4428 59.6313 15.5511 59.3721 15.7678C59.1164 15.9844 58.9229 16.2791 58.7915 16.652C58.6636 17.0249 58.5997 17.4492 58.5997 17.9251C58.5997 18.4009 58.6636 18.8253 58.7915 19.1982C58.9229 19.571 59.1164 19.8658 59.3721 20.0824C59.6313 20.2955 59.9509 20.402 60.3309 20.402ZM68.2419 11.0909V22H65.9727V11.0909H68.2419ZM72.5427 22.1545C72.0207 22.1545 71.5555 22.0639 71.1471 21.8828C70.7388 21.6982 70.4156 21.4265 70.1777 21.0678C69.9433 20.7056 69.8261 20.2546 69.8261 19.7148C69.8261 19.2603 69.9096 18.8786 70.0765 18.5696C70.2434 18.2607 70.4707 18.0121 70.7583 17.8239C71.0459 17.6357 71.3726 17.4936 71.7384 17.3977C72.1077 17.3018 72.4948 17.2344 72.8996 17.1953C73.3755 17.1456 73.759 17.0994 74.0502 17.0568C74.3414 17.0107 74.5527 16.9432 74.6841 16.8544C74.8155 16.7656 74.8812 16.6342 74.8812 16.4602V16.4283C74.8812 16.0909 74.7746 15.8299 74.5616 15.6452C74.352 15.4606 74.0537 15.3683 73.6667 15.3683C73.2583 15.3683 72.9334 15.4588 72.6919 15.6399C72.4504 15.8175 72.2906 16.0412 72.2125 16.3111L70.1138 16.1406C70.2203 15.6435 70.4298 15.2138 70.7423 14.8516C71.0548 14.4858 71.4579 14.2053 71.9515 14.0099C72.4486 13.8111 73.0239 13.7116 73.6773 13.7116C74.1319 13.7116 74.5669 13.7649 74.9824 13.8714C75.4014 13.978 75.7725 14.1431 76.0957 14.3668C76.4224 14.5906 76.6798 14.8782 76.868 15.2298C77.0562 15.5778 77.1503 15.995 77.1503 16.4815V22H74.9983V20.8654H74.9344C74.803 21.1211 74.6273 21.3466 74.4071 21.5419C74.1869 21.7337 73.9224 21.8846 73.6134 21.9947C73.3045 22.1012 72.9476 22.1545 72.5427 22.1545ZM73.1926 20.5884C73.5264 20.5884 73.8211 20.5227 74.0768 20.3913C74.3325 20.2564 74.5332 20.0753 74.6787 19.848C74.8243 19.6207 74.8971 19.3633 74.8971 19.0756V18.2074C74.8261 18.2536 74.7285 18.2962 74.6042 18.3352C74.4834 18.3707 74.3467 18.4045 74.194 18.4364C74.0413 18.4648 73.8886 18.4915 73.7359 18.5163C73.5832 18.5376 73.4447 18.5572 73.3204 18.5749C73.0541 18.614 72.8215 18.6761 72.6226 18.7614C72.4238 18.8466 72.2693 18.962 72.1592 19.1076C72.0491 19.2496 71.9941 19.4272 71.9941 19.6403C71.9941 19.9492 72.1059 20.1854 72.3297 20.3487C72.5569 20.5085 72.8446 20.5884 73.1926 20.5884ZM83.4127 13.8182V15.5227H78.4855V13.8182H83.4127ZM79.6041 11.858H81.8733V19.4858C81.8733 19.6953 81.9053 19.8587 81.9692 19.9759C82.0331 20.0895 82.1219 20.1694 82.2355 20.2156C82.3527 20.2617 82.4877 20.2848 82.6404 20.2848C82.7469 20.2848 82.8534 20.2759 82.96 20.2582C83.0665 20.2369 83.1482 20.2209 83.205 20.2102L83.5619 21.8988C83.4482 21.9343 83.2884 21.9751 83.0825 22.0213C82.8765 22.071 82.6262 22.1012 82.3314 22.1119C81.7845 22.1332 81.3051 22.0604 80.8932 21.8935C80.4848 21.7266 80.167 21.4673 79.9397 21.1158C79.7124 20.7642 79.6006 20.3203 79.6041 19.7841V11.858ZM88.6817 22.1598C87.8401 22.1598 87.1156 21.9893 86.5084 21.6484C85.9047 21.304 85.4395 20.8175 85.1128 20.1889C84.7861 19.5568 84.6227 18.8093 84.6227 17.9464C84.6227 17.1048 84.7861 16.3661 85.1128 15.7305C85.4395 15.0948 85.8994 14.5994 86.4924 14.2443C87.089 13.8892 87.7886 13.7116 88.5911 13.7116C89.1309 13.7116 89.6334 13.7987 90.0986 13.9727C90.5673 14.1431 90.9757 14.4006 91.3237 14.745C91.6753 15.0895 91.9487 15.5227 92.1441 16.0447C92.3394 16.5632 92.437 17.1705 92.437 17.8665V18.4897H85.5283V17.0835H90.301C90.301 16.7567 90.23 16.4673 90.0879 16.2152C89.9459 15.9631 89.7488 15.766 89.4967 15.6239C89.2481 15.4783 88.9587 15.4055 88.6284 15.4055C88.284 15.4055 87.9786 15.4854 87.7122 15.6452C87.4495 15.8015 87.2435 16.0128 87.0943 16.2791C86.9452 16.5419 86.8688 16.8349 86.8653 17.158V18.495C86.8653 18.8999 86.9399 19.2496 87.089 19.5444C87.2417 19.8391 87.4566 20.0664 87.7335 20.2262C88.0105 20.386 88.339 20.4659 88.719 20.4659C88.9711 20.4659 89.2019 20.4304 89.4115 20.3594C89.621 20.2884 89.8003 20.1818 89.9495 20.0398C90.0986 19.8977 90.2122 19.7237 90.2904 19.5178L92.3891 19.6562C92.2825 20.1605 92.0642 20.6009 91.7339 20.9773C91.4072 21.3501 90.9846 21.6413 90.4661 21.8509C89.9512 22.0568 89.3564 22.1598 88.6817 22.1598ZM97.7646 22.1598C96.9265 22.1598 96.2056 21.9822 95.6019 21.6271C95.0018 21.2685 94.5401 20.7713 94.217 20.1357C93.8974 19.5 93.7376 18.7685 93.7376 17.9411C93.7376 17.103 93.8992 16.3679 94.2223 15.7358C94.549 15.1001 95.0124 14.6048 95.6126 14.2496C96.2127 13.891 96.9265 13.7116 97.7539 13.7116C98.4677 13.7116 99.0927 13.8413 99.6289 14.1005C100.165 14.3597 100.59 14.7237 100.902 15.1925C101.215 15.6612 101.387 16.2116 101.419 16.8438H99.2774C99.217 16.4354 99.0572 16.1069 98.798 15.8583C98.5423 15.6062 98.2067 15.4801 97.7912 15.4801C97.4396 15.4801 97.1325 15.576 96.8697 15.7678C96.6105 15.956 96.408 16.2312 96.2624 16.5934C96.1168 16.9556 96.0441 17.3942 96.0441 17.9091C96.0441 18.4311 96.1151 18.875 96.2571 19.2408C96.4027 19.6065 96.6069 19.8853 96.8697 20.0771C97.1325 20.2688 97.4396 20.3647 97.7912 20.3647C98.0504 20.3647 98.283 20.3114 98.489 20.2049C98.6985 20.0984 98.8708 19.9439 99.0057 19.7415C99.1442 19.5355 99.2347 19.2887 99.2774 19.0011H101.419C101.383 19.6261 101.213 20.1765 100.907 20.6523C100.605 21.1246 100.188 21.494 99.6556 21.7603C99.1229 22.0266 98.4926 22.1598 97.7646 22.1598ZM105.291 17.2699V22H103.022V11.0909H105.227V15.2617H105.323C105.507 14.7788 105.806 14.4006 106.218 14.1271C106.63 13.8501 107.146 13.7116 107.768 13.7116C108.336 13.7116 108.831 13.8359 109.254 14.0845C109.68 14.3295 110.01 14.6829 110.245 15.1445C110.482 15.6026 110.6 16.1513 110.596 16.7905V22H108.327V17.1953C108.331 16.6911 108.203 16.2987 107.943 16.0181C107.688 15.7376 107.329 15.5973 106.867 15.5973C106.558 15.5973 106.285 15.663 106.047 15.7944C105.813 15.9258 105.628 16.1175 105.493 16.3697C105.362 16.6183 105.294 16.9183 105.291 17.2699ZM116.884 13.8182V15.5227H111.957V13.8182H116.884ZM113.075 11.858H115.344V19.4858C115.344 19.6953 115.376 19.8587 115.44 19.9759C115.504 20.0895 115.593 20.1694 115.707 20.2156C115.824 20.2617 115.959 20.2848 116.111 20.2848C116.218 20.2848 116.325 20.2759 116.431 20.2582C116.538 20.2369 116.619 20.2209 116.676 20.2102L117.033 21.8988C116.919 21.9343 116.76 21.9751 116.554 22.0213C116.348 22.071 116.097 22.1012 115.803 22.1119C115.256 22.1332 114.776 22.0604 114.364 21.8935C113.956 21.7266 113.638 21.4673 113.411 21.1158C113.184 20.7642 113.072 20.3203 113.075 19.7841V11.858ZM122.153 22.1598C121.311 22.1598 120.587 21.9893 119.979 21.6484C119.376 21.304 118.911 20.8175 118.584 20.1889C118.257 19.5568 118.094 18.8093 118.094 17.9464C118.094 17.1048 118.257 16.3661 118.584 15.7305C118.911 15.0948 119.37 14.5994 119.964 14.2443C120.56 13.8892 121.26 13.7116 122.062 13.7116C122.602 13.7116 123.104 13.7987 123.57 13.9727C124.038 14.1431 124.447 14.4006 124.795 14.745C125.146 15.0895 125.42 15.5227 125.615 16.0447C125.81 16.5632 125.908 17.1705 125.908 17.8665V18.4897H118.999V17.0835H123.772C123.772 16.7567 123.701 16.4673 123.559 16.2152C123.417 15.9631 123.22 15.766 122.968 15.6239C122.719 15.4783 122.43 15.4055 122.1 15.4055C121.755 15.4055 121.45 15.4854 121.183 15.6452C120.921 15.8015 120.715 16.0128 120.565 16.2791C120.416 16.5419 120.34 16.8349 120.336 17.158V18.495C120.336 18.8999 120.411 19.2496 120.56 19.5444C120.713 19.8391 120.928 20.0664 121.205 20.2262C121.482 20.386 121.81 20.4659 122.19 20.4659C122.442 20.4659 122.673 20.4304 122.883 20.3594C123.092 20.2884 123.271 20.1818 123.421 20.0398C123.57 19.8977 123.683 19.7237 123.761 19.5178L125.86 19.6562C125.754 20.1605 125.535 20.6009 125.205 20.9773C124.878 21.3501 124.456 21.6413 123.937 21.8509C123.422 22.0568 122.828 22.1598 122.153 22.1598ZM129.872 22.1545C129.35 22.1545 128.885 22.0639 128.476 21.8828C128.068 21.6982 127.745 21.4265 127.507 21.0678C127.273 20.7056 127.155 20.2546 127.155 19.7148C127.155 19.2603 127.239 18.8786 127.406 18.5696C127.573 18.2607 127.8 18.0121 128.088 17.8239C128.375 17.6357 128.702 17.4936 129.068 17.3977C129.437 17.3018 129.824 17.2344 130.229 17.1953C130.705 17.1456 131.088 17.0994 131.379 17.0568C131.671 17.0107 131.882 16.9432 132.013 16.8544C132.145 16.7656 132.21 16.6342 132.21 16.4602V16.4283C132.21 16.0909 132.104 15.8299 131.891 15.6452C131.681 15.4606 131.383 15.3683 130.996 15.3683C130.588 15.3683 130.263 15.4588 130.021 15.6399C129.78 15.8175 129.62 16.0412 129.542 16.3111L127.443 16.1406C127.55 15.6435 127.759 15.2138 128.072 14.8516C128.384 14.4858 128.787 14.2053 129.281 14.0099C129.778 13.8111 130.353 13.7116 131.007 13.7116C131.461 13.7116 131.896 13.7649 132.312 13.8714C132.731 13.978 133.102 14.1431 133.425 14.3668C133.752 14.5906 134.009 14.8782 134.197 15.2298C134.386 15.5778 134.48 15.995 134.48 16.4815V22H132.328V20.8654H132.264C132.132 21.1211 131.957 21.3466 131.736 21.5419C131.516 21.7337 131.252 21.8846 130.943 21.9947C130.634 22.1012 130.277 22.1545 129.872 22.1545ZM130.522 20.5884C130.856 20.5884 131.15 20.5227 131.406 20.3913C131.662 20.2564 131.862 20.0753 132.008 19.848C132.154 19.6207 132.226 19.3633 132.226 19.0756V18.2074C132.155 18.2536 132.058 18.2962 131.933 18.3352C131.813 18.3707 131.676 18.4045 131.523 18.4364C131.371 18.4648 131.218 18.4915 131.065 18.5163C130.913 18.5376 130.774 18.5572 130.65 18.5749C130.383 18.614 130.151 18.6761 129.952 18.7614C129.753 18.8466 129.599 18.962 129.489 19.1076C129.378 19.2496 129.323 19.4272 129.323 19.6403C129.323 19.9492 129.435 20.1854 129.659 20.3487C129.886 20.5085 130.174 20.5884 130.522 20.5884ZM136.39 22V13.8182H138.553V15.2617H138.649C138.819 14.7823 139.103 14.4041 139.501 14.1271C139.899 13.8501 140.374 13.7116 140.928 13.7116C141.49 13.7116 141.967 13.8519 142.361 14.1325C142.756 14.4094 143.018 14.7859 143.15 15.2617H143.235C143.402 14.793 143.704 14.4183 144.14 14.1378C144.581 13.8537 145.101 13.7116 145.701 13.7116C146.465 13.7116 147.084 13.9549 147.56 14.4414C148.04 14.9244 148.279 15.6097 148.279 16.4975V22H146.015V16.945C146.015 16.4904 145.895 16.1495 145.653 15.9222C145.412 15.695 145.11 15.5813 144.748 15.5813C144.336 15.5813 144.014 15.7127 143.784 15.9755C143.553 16.2347 143.437 16.5774 143.437 17.0036V22H141.237V16.897C141.237 16.4957 141.122 16.1761 140.891 15.9382C140.664 15.7003 140.364 15.5813 139.991 15.5813C139.739 15.5813 139.512 15.6452 139.309 15.7731C139.11 15.8974 138.952 16.0732 138.835 16.3004C138.718 16.5241 138.659 16.7869 138.659 17.0888V22H136.39Z" fill="#A2A2A2"/>
</svg>
